%TF.GenerationSoftware,KiCad,Pcbnew,9.0.7*%
%TF.CreationDate,2026-07-26T19:05:28+05:45*%
%TF.ProjectId,LDR_Night_Lamp,4c44525f-4e69-4676-9874-5f4c616d702e,rev?*%
%TF.SameCoordinates,Original*%
%TF.FileFunction,Copper,L2,Bot*%
%TF.FilePolarity,Positive*%
%FSLAX46Y46*%
G04 Gerber Fmt 4.6, Leading zero omitted, Abs format (unit mm)*
G04 Created by KiCad (PCBNEW 9.0.7) date 2026-07-26 19:05:28*
%MOMM*%
%LPD*%
G01*
G04 APERTURE LIST*
%TA.AperFunction,ComponentPad*%
%ADD10C,1.500000*%
%TD*%
%TA.AperFunction,WasherPad*%
%ADD11C,2.300000*%
%TD*%
%TA.AperFunction,ComponentPad*%
%ADD12R,2.410000X4.020000*%
%TD*%
%TA.AperFunction,ComponentPad*%
%ADD13O,2.410000X4.020000*%
%TD*%
%TA.AperFunction,ComponentPad*%
%ADD14C,1.600000*%
%TD*%
%TA.AperFunction,ComponentPad*%
%ADD15R,1.800000X1.800000*%
%TD*%
%TA.AperFunction,ComponentPad*%
%ADD16C,1.800000*%
%TD*%
%TA.AperFunction,ComponentPad*%
%ADD17R,1.050000X1.500000*%
%TD*%
%TA.AperFunction,ComponentPad*%
%ADD18O,1.050000X1.500000*%
%TD*%
%TA.AperFunction,Conductor*%
%ADD19C,0.200000*%
%TD*%
G04 APERTURE END LIST*
D10*
%TO.P,R2,1*%
%TO.N,Net-(Q1-B)*%
X175460000Y-96100000D03*
%TO.P,R2,2*%
%TO.N,Net-(BT1--)*%
X178860000Y-96100000D03*
%TD*%
D11*
%TO.P,BT1,*%
%TO.N,*%
X129530000Y-88500000D03*
X143020000Y-66150000D03*
X156500000Y-88500000D03*
D12*
%TO.P,BT1,1,+*%
%TO.N,Net-(BT1-+)*%
X117240000Y-70880000D03*
D13*
%TO.P,BT1,2,-*%
%TO.N,Net-(BT1--)*%
X117240000Y-83760000D03*
%TD*%
D14*
%TO.P,R1,1*%
%TO.N,Net-(Q1-B)*%
X173960000Y-77220000D03*
%TO.P,R1,2*%
%TO.N,Net-(BT1-+)*%
X173960000Y-61980000D03*
%TD*%
D15*
%TO.P,D1,1,K*%
%TO.N,Net-(D1-K)*%
X175960000Y-83600000D03*
D16*
%TO.P,D1,2,A*%
%TO.N,Net-(D1-A)*%
X178500000Y-83600000D03*
%TD*%
D17*
%TO.P,Q1,1,C*%
%TO.N,Net-(D1-K)*%
X175960000Y-90600000D03*
D18*
%TO.P,Q1,2,B*%
%TO.N,Net-(Q1-B)*%
X177230000Y-90600000D03*
%TO.P,Q1,3,E*%
%TO.N,Net-(BT1--)*%
X178500000Y-90600000D03*
%TD*%
D14*
%TO.P,R3,1*%
%TO.N,Net-(BT1-+)*%
X178010000Y-77220000D03*
%TO.P,R3,2*%
%TO.N,Net-(D1-A)*%
X178010000Y-61980000D03*
%TD*%
D19*
%TO.N,Net-(BT1--)*%
X171885000Y-83760000D02*
X117240000Y-83760000D01*
X178500000Y-90600000D02*
X178500000Y-90375000D01*
X178500000Y-90600000D02*
X178500000Y-95740000D01*
X178500000Y-95740000D02*
X178860000Y-96100000D01*
X178500000Y-90375000D02*
X171885000Y-83760000D01*
%TO.N,Net-(D1-A)*%
X179400000Y-82700000D02*
X179400000Y-63370000D01*
X179400000Y-63370000D02*
X178010000Y-61980000D01*
X178500000Y-83600000D02*
X179400000Y-82700000D01*
%TD*%
%TA.AperFunction,Conductor*%
%TO.N,Net-(BT1--)*%
G36*
X181152539Y-60370185D02*
G01*
X181198294Y-60422989D01*
X181209500Y-60474500D01*
X181209500Y-98725500D01*
X181189815Y-98792539D01*
X181137011Y-98838294D01*
X181085500Y-98849500D01*
X113334500Y-98849500D01*
X113267461Y-98829815D01*
X113221706Y-98777011D01*
X113210500Y-98725500D01*
X113210500Y-96001577D01*
X174209500Y-96001577D01*
X174209500Y-96198422D01*
X174240290Y-96392826D01*
X174301117Y-96580029D01*
X174390343Y-96755143D01*
X174390476Y-96755405D01*
X174506172Y-96914646D01*
X174645354Y-97053828D01*
X174804595Y-97169524D01*
X174887455Y-97211743D01*
X174979970Y-97258882D01*
X174979972Y-97258882D01*
X174979975Y-97258884D01*
X175080317Y-97291487D01*
X175167173Y-97319709D01*
X175361578Y-97350500D01*
X175361583Y-97350500D01*
X175558422Y-97350500D01*
X175752826Y-97319709D01*
X175754328Y-97319221D01*
X175940025Y-97258884D01*
X176115405Y-97169524D01*
X176274646Y-97053828D01*
X176413828Y-96914646D01*
X176529524Y-96755405D01*
X176618884Y-96580025D01*
X176679709Y-96392826D01*
X176687188Y-96345606D01*
X176710500Y-96198422D01*
X176710500Y-96001617D01*
X177610000Y-96001617D01*
X177610000Y-96198382D01*
X177640778Y-96392705D01*
X177701581Y-96579835D01*
X177790905Y-96755145D01*
X177816319Y-96790125D01*
X177816320Y-96790125D01*
X178460000Y-96146445D01*
X178460000Y-96152661D01*
X178487259Y-96254394D01*
X178539920Y-96345606D01*
X178614394Y-96420080D01*
X178705606Y-96472741D01*
X178807339Y-96500000D01*
X178813553Y-96500000D01*
X178169873Y-97143677D01*
X178169873Y-97143678D01*
X178204858Y-97169096D01*
X178380164Y-97258418D01*
X178567294Y-97319221D01*
X178761618Y-97350000D01*
X178958382Y-97350000D01*
X179152705Y-97319221D01*
X179339835Y-97258418D01*
X179515143Y-97169095D01*
X179550125Y-97143678D01*
X179550126Y-97143678D01*
X178906448Y-96500000D01*
X178912661Y-96500000D01*
X179014394Y-96472741D01*
X179105606Y-96420080D01*
X179180080Y-96345606D01*
X179232741Y-96254394D01*
X179260000Y-96152661D01*
X179260000Y-96146448D01*
X179903678Y-96790126D01*
X179903678Y-96790125D01*
X179929095Y-96755143D01*
X180018418Y-96579835D01*
X180079221Y-96392705D01*
X180110000Y-96198382D01*
X180110000Y-96001617D01*
X180079221Y-95807294D01*
X180018418Y-95620164D01*
X179929096Y-95444858D01*
X179903678Y-95409873D01*
X179903677Y-95409873D01*
X179260000Y-96053551D01*
X179260000Y-96047339D01*
X179232741Y-95945606D01*
X179180080Y-95854394D01*
X179105606Y-95779920D01*
X179014394Y-95727259D01*
X178912661Y-95700000D01*
X178906447Y-95700000D01*
X179550125Y-95056320D01*
X179550125Y-95056319D01*
X179515145Y-95030905D01*
X179339835Y-94941581D01*
X179152705Y-94880778D01*
X178958382Y-94850000D01*
X178761618Y-94850000D01*
X178567294Y-94880778D01*
X178380161Y-94941582D01*
X178204863Y-95030899D01*
X178204859Y-95030902D01*
X178169873Y-95056320D01*
X178169872Y-95056320D01*
X178813554Y-95700000D01*
X178807339Y-95700000D01*
X178705606Y-95727259D01*
X178614394Y-95779920D01*
X178539920Y-95854394D01*
X178487259Y-95945606D01*
X178460000Y-96047339D01*
X178460000Y-96053552D01*
X177816320Y-95409872D01*
X177816320Y-95409873D01*
X177790902Y-95444859D01*
X177790899Y-95444863D01*
X177701582Y-95620161D01*
X177640778Y-95807294D01*
X177610000Y-96001617D01*
X176710500Y-96001617D01*
X176710500Y-96001577D01*
X176679709Y-95807173D01*
X176618882Y-95619970D01*
X176571743Y-95527455D01*
X176529524Y-95444595D01*
X176413828Y-95285354D01*
X176274646Y-95146172D01*
X176115405Y-95030476D01*
X175940029Y-94941117D01*
X175752826Y-94880290D01*
X175558422Y-94849500D01*
X175558417Y-94849500D01*
X175361583Y-94849500D01*
X175361578Y-94849500D01*
X175167173Y-94880290D01*
X174979970Y-94941117D01*
X174804594Y-95030476D01*
X174713741Y-95096485D01*
X174645354Y-95146172D01*
X174645352Y-95146174D01*
X174645351Y-95146174D01*
X174506174Y-95285351D01*
X174506174Y-95285352D01*
X174506172Y-95285354D01*
X174456485Y-95353741D01*
X174390476Y-95444594D01*
X174301117Y-95619970D01*
X174240290Y-95807173D01*
X174209500Y-96001577D01*
X113210500Y-96001577D01*
X113210500Y-88370097D01*
X127879500Y-88370097D01*
X127879500Y-88629902D01*
X127920140Y-88886493D01*
X128000422Y-89133576D01*
X128081534Y-89292764D01*
X128113707Y-89355908D01*
X128118368Y-89365054D01*
X128210930Y-89492455D01*
X128271069Y-89575229D01*
X128454771Y-89758931D01*
X128664949Y-89911634D01*
X128812445Y-89986787D01*
X128896423Y-90029577D01*
X128896425Y-90029577D01*
X128896428Y-90029579D01*
X129143507Y-90109860D01*
X129275706Y-90130797D01*
X129400098Y-90150500D01*
X129400103Y-90150500D01*
X129659902Y-90150500D01*
X129773298Y-90132539D01*
X129916493Y-90109860D01*
X130163572Y-90029579D01*
X130395051Y-89911634D01*
X130605229Y-89758931D01*
X130788931Y-89575229D01*
X130941634Y-89365051D01*
X131059579Y-89133572D01*
X131139860Y-88886493D01*
X131162539Y-88743298D01*
X131180500Y-88629902D01*
X131180500Y-88370097D01*
X154849500Y-88370097D01*
X154849500Y-88629902D01*
X154890140Y-88886493D01*
X154970422Y-89133576D01*
X155051534Y-89292764D01*
X155083707Y-89355908D01*
X155088368Y-89365054D01*
X155180930Y-89492455D01*
X155241069Y-89575229D01*
X155424771Y-89758931D01*
X155634949Y-89911634D01*
X155782445Y-89986787D01*
X155866423Y-90029577D01*
X155866425Y-90029577D01*
X155866428Y-90029579D01*
X156113507Y-90109860D01*
X156245706Y-90130797D01*
X156370098Y-90150500D01*
X156370103Y-90150500D01*
X156629902Y-90150500D01*
X156743298Y-90132539D01*
X156886493Y-90109860D01*
X157133572Y-90029579D01*
X157365051Y-89911634D01*
X157515764Y-89802135D01*
X174934500Y-89802135D01*
X174934500Y-91397870D01*
X174934501Y-91397876D01*
X174940908Y-91457483D01*
X174991202Y-91592328D01*
X174991206Y-91592335D01*
X175077452Y-91707544D01*
X175077455Y-91707547D01*
X175192664Y-91793793D01*
X175192671Y-91793797D01*
X175327517Y-91844091D01*
X175327516Y-91844091D01*
X175334444Y-91844835D01*
X175387127Y-91850500D01*
X176532872Y-91850499D01*
X176592483Y-91844091D01*
X176727331Y-91793796D01*
X176728430Y-91792972D01*
X176729717Y-91792492D01*
X176735112Y-91789547D01*
X176735535Y-91790322D01*
X176793887Y-91768552D01*
X176850198Y-91777673D01*
X176930873Y-91811091D01*
X177096777Y-91844091D01*
X177128992Y-91850499D01*
X177128996Y-91850500D01*
X177128997Y-91850500D01*
X177331004Y-91850500D01*
X177331005Y-91850499D01*
X177529127Y-91811091D01*
X177715756Y-91733786D01*
X177796562Y-91679792D01*
X177863234Y-91658917D01*
X177930614Y-91677401D01*
X177934340Y-91679795D01*
X178014479Y-91733343D01*
X178014486Y-91733347D01*
X178201016Y-91810609D01*
X178201025Y-91810612D01*
X178250000Y-91820353D01*
X178250000Y-90965865D01*
X178250067Y-90961789D01*
X178250400Y-90951638D01*
X178255500Y-90926003D01*
X178255500Y-90885830D01*
X178269745Y-90900075D01*
X178355255Y-90949444D01*
X178450630Y-90975000D01*
X178549370Y-90975000D01*
X178644745Y-90949444D01*
X178730255Y-90900075D01*
X178750000Y-90880330D01*
X178750000Y-91820352D01*
X178798974Y-91810612D01*
X178798983Y-91810609D01*
X178985513Y-91733347D01*
X178985526Y-91733340D01*
X179153399Y-91621170D01*
X179153403Y-91621167D01*
X179296167Y-91478403D01*
X179296170Y-91478399D01*
X179408340Y-91310526D01*
X179408347Y-91310513D01*
X179485609Y-91123983D01*
X179485612Y-91123974D01*
X179524999Y-90925958D01*
X179525000Y-90925955D01*
X179525000Y-90850000D01*
X178780330Y-90850000D01*
X178800075Y-90830255D01*
X178849444Y-90744745D01*
X178875000Y-90649370D01*
X178875000Y-90550630D01*
X178849444Y-90455255D01*
X178800075Y-90369745D01*
X178780330Y-90350000D01*
X179525000Y-90350000D01*
X179525000Y-90274045D01*
X179524999Y-90274041D01*
X179485612Y-90076025D01*
X179485609Y-90076016D01*
X179408347Y-89889486D01*
X179408340Y-89889473D01*
X179296170Y-89721600D01*
X179296167Y-89721596D01*
X179153403Y-89578832D01*
X179153399Y-89578829D01*
X178985526Y-89466659D01*
X178985513Y-89466652D01*
X178798984Y-89389390D01*
X178798977Y-89389388D01*
X178750000Y-89379645D01*
X178750000Y-90319670D01*
X178730255Y-90299925D01*
X178644745Y-90250556D01*
X178549370Y-90225000D01*
X178450630Y-90225000D01*
X178355255Y-90250556D01*
X178269745Y-90299925D01*
X178255500Y-90314170D01*
X178255500Y-90273997D01*
X178252383Y-90258326D01*
X178250000Y-90234134D01*
X178250000Y-89379646D01*
X178249999Y-89379645D01*
X178201022Y-89389388D01*
X178201015Y-89389390D01*
X178014481Y-89466654D01*
X178014479Y-89466655D01*
X177934337Y-89520204D01*
X177867660Y-89541081D01*
X177800280Y-89522596D01*
X177796558Y-89520204D01*
X177715754Y-89466212D01*
X177529127Y-89388909D01*
X177529119Y-89388907D01*
X177331007Y-89349500D01*
X177331003Y-89349500D01*
X177128997Y-89349500D01*
X177128992Y-89349500D01*
X176930880Y-89388907D01*
X176930868Y-89388910D01*
X176850198Y-89422325D01*
X176780729Y-89429794D01*
X176735342Y-89410036D01*
X176735114Y-89410454D01*
X176730447Y-89407905D01*
X176728432Y-89407028D01*
X176727331Y-89406204D01*
X176727330Y-89406203D01*
X176727328Y-89406202D01*
X176592482Y-89355908D01*
X176592483Y-89355908D01*
X176532883Y-89349501D01*
X176532881Y-89349500D01*
X176532873Y-89349500D01*
X176532864Y-89349500D01*
X175387129Y-89349500D01*
X175387123Y-89349501D01*
X175327516Y-89355908D01*
X175192671Y-89406202D01*
X175192664Y-89406206D01*
X175077455Y-89492452D01*
X175077452Y-89492455D01*
X174991206Y-89607664D01*
X174991202Y-89607671D01*
X174940908Y-89742517D01*
X174934501Y-89802116D01*
X174934500Y-89802135D01*
X157515764Y-89802135D01*
X157575229Y-89758931D01*
X157758931Y-89575229D01*
X157911634Y-89365051D01*
X158029579Y-89133572D01*
X158109860Y-88886493D01*
X158132539Y-88743298D01*
X158150500Y-88629902D01*
X158150500Y-88370097D01*
X158128947Y-88234021D01*
X158109860Y-88113507D01*
X158029579Y-87866428D01*
X158029577Y-87866425D01*
X158029577Y-87866423D01*
X157986787Y-87782445D01*
X157911634Y-87634949D01*
X157758931Y-87424771D01*
X157575229Y-87241069D01*
X157365051Y-87088366D01*
X157292764Y-87051534D01*
X157133576Y-86970422D01*
X156886493Y-86890140D01*
X156629902Y-86849500D01*
X156629897Y-86849500D01*
X156370103Y-86849500D01*
X156370098Y-86849500D01*
X156113506Y-86890140D01*
X155866423Y-86970422D01*
X155634945Y-87088368D01*
X155424774Y-87241066D01*
X155424768Y-87241071D01*
X155241071Y-87424768D01*
X155241066Y-87424774D01*
X155088368Y-87634945D01*
X154970422Y-87866423D01*
X154890140Y-88113506D01*
X154849500Y-88370097D01*
X131180500Y-88370097D01*
X131158947Y-88234021D01*
X131139860Y-88113507D01*
X131059579Y-87866428D01*
X131059577Y-87866425D01*
X131059577Y-87866423D01*
X131016787Y-87782445D01*
X130941634Y-87634949D01*
X130788931Y-87424771D01*
X130605229Y-87241069D01*
X130395051Y-87088366D01*
X130322764Y-87051534D01*
X130163576Y-86970422D01*
X129916493Y-86890140D01*
X129659902Y-86849500D01*
X129659897Y-86849500D01*
X129400103Y-86849500D01*
X129400098Y-86849500D01*
X129143506Y-86890140D01*
X128896423Y-86970422D01*
X128664945Y-87088368D01*
X128454774Y-87241066D01*
X128454768Y-87241071D01*
X128271071Y-87424768D01*
X128271066Y-87424774D01*
X128118368Y-87634945D01*
X128000422Y-87866423D01*
X127920140Y-88113506D01*
X127879500Y-88370097D01*
X113210500Y-88370097D01*
X113210500Y-82843254D01*
X115535000Y-82843254D01*
X115535000Y-83510000D01*
X116910000Y-83510000D01*
X116910000Y-84010000D01*
X115535000Y-84010000D01*
X115535000Y-84676745D01*
X115535001Y-84676761D01*
X115564172Y-84898339D01*
X115622020Y-85114230D01*
X115707546Y-85320711D01*
X115707554Y-85320727D01*
X115819298Y-85514272D01*
X115819309Y-85514288D01*
X115955361Y-85691595D01*
X115955367Y-85691602D01*
X116113397Y-85849632D01*
X116113404Y-85849638D01*
X116290711Y-85985690D01*
X116290727Y-85985701D01*
X116484272Y-86097445D01*
X116484288Y-86097453D01*
X116690769Y-86182979D01*
X116906660Y-86240827D01*
X116990000Y-86251798D01*
X116990000Y-84781691D01*
X117037375Y-84829066D01*
X117112625Y-84872511D01*
X117196555Y-84895000D01*
X117283445Y-84895000D01*
X117367375Y-84872511D01*
X117442625Y-84829066D01*
X117490000Y-84781691D01*
X117490000Y-86251797D01*
X117573339Y-86240827D01*
X117789230Y-86182979D01*
X117995711Y-86097453D01*
X117995727Y-86097445D01*
X118189272Y-85985701D01*
X118189288Y-85985690D01*
X118366595Y-85849638D01*
X118366602Y-85849632D01*
X118524632Y-85691602D01*
X118524638Y-85691595D01*
X118660690Y-85514288D01*
X118660701Y-85514272D01*
X118772445Y-85320727D01*
X118772453Y-85320711D01*
X118857979Y-85114230D01*
X118915827Y-84898339D01*
X118944998Y-84676761D01*
X118945000Y-84676745D01*
X118945000Y-84010000D01*
X117570000Y-84010000D01*
X117570000Y-83510000D01*
X118945000Y-83510000D01*
X118945000Y-82843254D01*
X118944998Y-82843238D01*
X118921532Y-82664991D01*
X118919839Y-82652135D01*
X174559500Y-82652135D01*
X174559500Y-84547870D01*
X174559501Y-84547876D01*
X174565908Y-84607483D01*
X174616202Y-84742328D01*
X174616206Y-84742335D01*
X174702452Y-84857544D01*
X174702455Y-84857547D01*
X174817664Y-84943793D01*
X174817671Y-84943797D01*
X174952517Y-84994091D01*
X174952516Y-84994091D01*
X174959444Y-84994835D01*
X175012127Y-85000500D01*
X176907872Y-85000499D01*
X176967483Y-84994091D01*
X177102331Y-84943796D01*
X177217546Y-84857546D01*
X177303796Y-84742331D01*
X177303798Y-84742326D01*
X177333601Y-84662420D01*
X177375471Y-84606486D01*
X177440936Y-84582068D01*
X177509209Y-84596919D01*
X177537464Y-84618071D01*
X177587636Y-84668243D01*
X177587641Y-84668247D01*
X177599338Y-84676745D01*
X177765978Y-84797815D01*
X177894375Y-84863237D01*
X177962393Y-84897895D01*
X177962396Y-84897896D01*
X178067221Y-84931955D01*
X178172049Y-84966015D01*
X178389778Y-85000500D01*
X178389779Y-85000500D01*
X178610221Y-85000500D01*
X178610222Y-85000500D01*
X178827951Y-84966015D01*
X179030042Y-84900352D01*
X179037603Y-84897896D01*
X179037606Y-84897895D01*
X179087424Y-84872511D01*
X179234022Y-84797815D01*
X179412365Y-84668242D01*
X179568242Y-84512365D01*
X179697815Y-84334022D01*
X179797895Y-84137606D01*
X179866015Y-83927951D01*
X179900500Y-83710222D01*
X179900500Y-83489778D01*
X179866015Y-83272049D01*
X179843187Y-83201794D01*
X179841192Y-83131956D01*
X179856827Y-83096402D01*
X179864023Y-83085211D01*
X179880520Y-83068716D01*
X179930639Y-82981904D01*
X179959577Y-82931785D01*
X180000500Y-82779058D01*
X180000500Y-82620943D01*
X180000500Y-63459059D01*
X180000501Y-63459046D01*
X180000501Y-63290945D01*
X180000501Y-63290943D01*
X179959577Y-63138215D01*
X179930639Y-63088095D01*
X179880520Y-63001284D01*
X179768716Y-62889480D01*
X179768715Y-62889479D01*
X179764385Y-62885149D01*
X179764374Y-62885139D01*
X179304077Y-62424842D01*
X179270592Y-62363519D01*
X179273828Y-62298841D01*
X179278477Y-62284534D01*
X179310500Y-62082352D01*
X179310500Y-61877648D01*
X179278477Y-61675466D01*
X179215220Y-61480781D01*
X179215218Y-61480778D01*
X179215218Y-61480776D01*
X179181503Y-61414607D01*
X179122287Y-61298390D01*
X179114556Y-61287749D01*
X179001971Y-61132786D01*
X178857213Y-60988028D01*
X178691613Y-60867715D01*
X178691612Y-60867714D01*
X178691610Y-60867713D01*
X178634653Y-60838691D01*
X178509223Y-60774781D01*
X178314534Y-60711522D01*
X178139995Y-60683878D01*
X178112352Y-60679500D01*
X177907648Y-60679500D01*
X177883329Y-60683351D01*
X177705465Y-60711522D01*
X177510776Y-60774781D01*
X177328386Y-60867715D01*
X177162786Y-60988028D01*
X177018028Y-61132786D01*
X176897715Y-61298386D01*
X176804781Y-61480776D01*
X176741522Y-61675465D01*
X176709500Y-61877648D01*
X176709500Y-62082351D01*
X176741522Y-62284534D01*
X176804781Y-62479223D01*
X176897715Y-62661613D01*
X177018028Y-62827213D01*
X177162786Y-62971971D01*
X177317749Y-63084556D01*
X177328390Y-63092287D01*
X177418527Y-63138214D01*
X177510776Y-63185218D01*
X177510778Y-63185218D01*
X177510781Y-63185220D01*
X177615137Y-63219127D01*
X177705465Y-63248477D01*
X177806557Y-63264488D01*
X177907648Y-63280500D01*
X177907649Y-63280500D01*
X178112351Y-63280500D01*
X178112352Y-63280500D01*
X178314534Y-63248477D01*
X178328842Y-63243827D01*
X178398682Y-63241831D01*
X178454842Y-63274077D01*
X178763181Y-63582416D01*
X178796666Y-63643739D01*
X178799500Y-63670097D01*
X178799500Y-75960335D01*
X178779815Y-76027374D01*
X178727011Y-76073129D01*
X178657853Y-76083073D01*
X178619206Y-76070820D01*
X178509226Y-76014782D01*
X178314534Y-75951522D01*
X178139995Y-75923878D01*
X178112352Y-75919500D01*
X177907648Y-75919500D01*
X177883329Y-75923351D01*
X177705465Y-75951522D01*
X177510776Y-76014781D01*
X177328386Y-76107715D01*
X177162786Y-76228028D01*
X177018028Y-76372786D01*
X176897715Y-76538386D01*
X176804781Y-76720776D01*
X176741522Y-76915465D01*
X176709500Y-77117648D01*
X176709500Y-77322351D01*
X176741522Y-77524534D01*
X176804781Y-77719223D01*
X176897715Y-77901613D01*
X177018028Y-78067213D01*
X177162786Y-78211971D01*
X177317749Y-78324556D01*
X177328390Y-78332287D01*
X177400795Y-78369179D01*
X177510776Y-78425218D01*
X177510778Y-78425218D01*
X177510781Y-78425220D01*
X177615137Y-78459127D01*
X177705465Y-78488477D01*
X177806557Y-78504488D01*
X177907648Y-78520500D01*
X177907649Y-78520500D01*
X178112351Y-78520500D01*
X178112352Y-78520500D01*
X178314534Y-78488477D01*
X178509219Y-78425220D01*
X178619205Y-78369178D01*
X178687874Y-78356283D01*
X178752614Y-78382559D01*
X178792872Y-78439665D01*
X178799500Y-78479664D01*
X178799500Y-82084292D01*
X178779815Y-82151331D01*
X178727011Y-82197086D01*
X178657853Y-82207030D01*
X178656104Y-82206766D01*
X178610224Y-82199500D01*
X178610222Y-82199500D01*
X178389778Y-82199500D01*
X178342236Y-82207030D01*
X178172047Y-82233985D01*
X177962396Y-82302103D01*
X177962393Y-82302104D01*
X177765974Y-82402187D01*
X177587641Y-82531752D01*
X177587636Y-82531756D01*
X177537463Y-82581929D01*
X177476140Y-82615413D01*
X177406448Y-82610428D01*
X177350515Y-82568557D01*
X177333601Y-82537580D01*
X177303797Y-82457671D01*
X177303793Y-82457664D01*
X177217547Y-82342455D01*
X177217544Y-82342452D01*
X177102335Y-82256206D01*
X177102328Y-82256202D01*
X176967482Y-82205908D01*
X176967483Y-82205908D01*
X176907883Y-82199501D01*
X176907881Y-82199500D01*
X176907873Y-82199500D01*
X176907864Y-82199500D01*
X175012129Y-82199500D01*
X175012123Y-82199501D01*
X174952516Y-82205908D01*
X174817671Y-82256202D01*
X174817664Y-82256206D01*
X174702455Y-82342452D01*
X174702452Y-82342455D01*
X174616206Y-82457664D01*
X174616202Y-82457671D01*
X174565908Y-82592517D01*
X174559501Y-82652116D01*
X174559500Y-82652135D01*
X118919839Y-82652135D01*
X118915827Y-82621660D01*
X118857979Y-82405769D01*
X118772453Y-82199288D01*
X118772445Y-82199272D01*
X118660701Y-82005727D01*
X118660690Y-82005711D01*
X118524638Y-81828404D01*
X118524632Y-81828397D01*
X118366602Y-81670367D01*
X118366595Y-81670361D01*
X118189288Y-81534309D01*
X118189272Y-81534298D01*
X117995727Y-81422554D01*
X117995711Y-81422546D01*
X117789230Y-81337020D01*
X117573342Y-81279173D01*
X117573335Y-81279172D01*
X117490000Y-81268199D01*
X117490000Y-82738309D01*
X117442625Y-82690934D01*
X117367375Y-82647489D01*
X117283445Y-82625000D01*
X117196555Y-82625000D01*
X117112625Y-82647489D01*
X117037375Y-82690934D01*
X116990000Y-82738309D01*
X116990000Y-81268199D01*
X116906664Y-81279172D01*
X116906657Y-81279173D01*
X116690769Y-81337020D01*
X116484288Y-81422546D01*
X116484272Y-81422554D01*
X116290727Y-81534298D01*
X116290711Y-81534309D01*
X116113404Y-81670361D01*
X116113397Y-81670367D01*
X115955367Y-81828397D01*
X115955361Y-81828404D01*
X115819309Y-82005711D01*
X115819298Y-82005727D01*
X115707554Y-82199272D01*
X115707546Y-82199288D01*
X115622020Y-82405769D01*
X115564172Y-82621660D01*
X115535001Y-82843238D01*
X115535000Y-82843254D01*
X113210500Y-82843254D01*
X113210500Y-77117648D01*
X172659500Y-77117648D01*
X172659500Y-77322351D01*
X172691522Y-77524534D01*
X172754781Y-77719223D01*
X172847715Y-77901613D01*
X172968028Y-78067213D01*
X173112786Y-78211971D01*
X173267749Y-78324556D01*
X173278390Y-78332287D01*
X173350795Y-78369179D01*
X173460776Y-78425218D01*
X173460778Y-78425218D01*
X173460781Y-78425220D01*
X173565137Y-78459127D01*
X173655465Y-78488477D01*
X173756557Y-78504488D01*
X173857648Y-78520500D01*
X173857649Y-78520500D01*
X174062351Y-78520500D01*
X174062352Y-78520500D01*
X174264534Y-78488477D01*
X174459219Y-78425220D01*
X174641610Y-78332287D01*
X174734590Y-78264732D01*
X174807213Y-78211971D01*
X174807215Y-78211968D01*
X174807219Y-78211966D01*
X174951966Y-78067219D01*
X174951968Y-78067215D01*
X174951971Y-78067213D01*
X175004732Y-77994590D01*
X175072287Y-77901610D01*
X175165220Y-77719219D01*
X175228477Y-77524534D01*
X175260500Y-77322352D01*
X175260500Y-77117648D01*
X175228477Y-76915466D01*
X175165220Y-76720781D01*
X175165218Y-76720778D01*
X175165218Y-76720776D01*
X175131503Y-76654607D01*
X175072287Y-76538390D01*
X175064556Y-76527749D01*
X174951971Y-76372786D01*
X174807213Y-76228028D01*
X174641613Y-76107715D01*
X174641612Y-76107714D01*
X174641610Y-76107713D01*
X174569204Y-76070820D01*
X174459223Y-76014781D01*
X174264534Y-75951522D01*
X174089995Y-75923878D01*
X174062352Y-75919500D01*
X173857648Y-75919500D01*
X173833329Y-75923351D01*
X173655465Y-75951522D01*
X173460776Y-76014781D01*
X173278386Y-76107715D01*
X173112786Y-76228028D01*
X172968028Y-76372786D01*
X172847715Y-76538386D01*
X172754781Y-76720776D01*
X172691522Y-76915465D01*
X172659500Y-77117648D01*
X113210500Y-77117648D01*
X113210500Y-68822135D01*
X115534500Y-68822135D01*
X115534500Y-72937870D01*
X115534501Y-72937876D01*
X115540908Y-72997483D01*
X115591202Y-73132328D01*
X115591206Y-73132335D01*
X115677452Y-73247544D01*
X115677455Y-73247547D01*
X115792664Y-73333793D01*
X115792671Y-73333797D01*
X115927517Y-73384091D01*
X115927516Y-73384091D01*
X115934444Y-73384835D01*
X115987127Y-73390500D01*
X118492872Y-73390499D01*
X118552483Y-73384091D01*
X118687331Y-73333796D01*
X118802546Y-73247546D01*
X118888796Y-73132331D01*
X118939091Y-72997483D01*
X118945500Y-72937873D01*
X118945499Y-68822128D01*
X118939091Y-68762517D01*
X118888796Y-68627669D01*
X118888795Y-68627668D01*
X118888793Y-68627664D01*
X118802547Y-68512455D01*
X118802544Y-68512452D01*
X118687335Y-68426206D01*
X118687328Y-68426202D01*
X118552482Y-68375908D01*
X118552483Y-68375908D01*
X118492883Y-68369501D01*
X118492881Y-68369500D01*
X118492873Y-68369500D01*
X118492864Y-68369500D01*
X115987129Y-68369500D01*
X115987123Y-68369501D01*
X115927516Y-68375908D01*
X115792671Y-68426202D01*
X115792664Y-68426206D01*
X115677455Y-68512452D01*
X115677452Y-68512455D01*
X115591206Y-68627664D01*
X115591202Y-68627671D01*
X115540908Y-68762517D01*
X115534501Y-68822116D01*
X115534501Y-68822123D01*
X115534500Y-68822135D01*
X113210500Y-68822135D01*
X113210500Y-66020097D01*
X141369500Y-66020097D01*
X141369500Y-66279902D01*
X141410140Y-66536493D01*
X141490422Y-66783576D01*
X141571534Y-66942764D01*
X141608366Y-67015051D01*
X141761069Y-67225229D01*
X141944771Y-67408931D01*
X142154949Y-67561634D01*
X142302445Y-67636787D01*
X142386423Y-67679577D01*
X142386425Y-67679577D01*
X142386428Y-67679579D01*
X142633507Y-67759860D01*
X142765706Y-67780797D01*
X142890098Y-67800500D01*
X142890103Y-67800500D01*
X143149902Y-67800500D01*
X143263298Y-67782539D01*
X143406493Y-67759860D01*
X143653572Y-67679579D01*
X143885051Y-67561634D01*
X144095229Y-67408931D01*
X144278931Y-67225229D01*
X144431634Y-67015051D01*
X144549579Y-66783572D01*
X144629860Y-66536493D01*
X144652539Y-66393298D01*
X144670500Y-66279902D01*
X144670500Y-66020097D01*
X144648947Y-65884021D01*
X144629860Y-65763507D01*
X144549579Y-65516428D01*
X144549577Y-65516425D01*
X144549577Y-65516423D01*
X144506787Y-65432445D01*
X144431634Y-65284949D01*
X144278931Y-65074771D01*
X144095229Y-64891069D01*
X143885051Y-64738366D01*
X143812764Y-64701534D01*
X143653576Y-64620422D01*
X143406493Y-64540140D01*
X143149902Y-64499500D01*
X143149897Y-64499500D01*
X142890103Y-64499500D01*
X142890098Y-64499500D01*
X142633506Y-64540140D01*
X142386423Y-64620422D01*
X142154945Y-64738368D01*
X141944774Y-64891066D01*
X141944768Y-64891071D01*
X141761071Y-65074768D01*
X141761066Y-65074774D01*
X141608368Y-65284945D01*
X141490422Y-65516423D01*
X141410140Y-65763506D01*
X141369500Y-66020097D01*
X113210500Y-66020097D01*
X113210500Y-61877648D01*
X172659500Y-61877648D01*
X172659500Y-62082351D01*
X172691522Y-62284534D01*
X172754781Y-62479223D01*
X172847715Y-62661613D01*
X172968028Y-62827213D01*
X173112786Y-62971971D01*
X173267749Y-63084556D01*
X173278390Y-63092287D01*
X173368527Y-63138214D01*
X173460776Y-63185218D01*
X173460778Y-63185218D01*
X173460781Y-63185220D01*
X173565137Y-63219127D01*
X173655465Y-63248477D01*
X173756557Y-63264488D01*
X173857648Y-63280500D01*
X173857649Y-63280500D01*
X174062351Y-63280500D01*
X174062352Y-63280500D01*
X174264534Y-63248477D01*
X174459219Y-63185220D01*
X174641610Y-63092287D01*
X174766866Y-63001284D01*
X174807213Y-62971971D01*
X174807215Y-62971968D01*
X174807219Y-62971966D01*
X174951966Y-62827219D01*
X174951968Y-62827215D01*
X174951971Y-62827213D01*
X175004732Y-62754590D01*
X175072287Y-62661610D01*
X175165220Y-62479219D01*
X175228477Y-62284534D01*
X175260500Y-62082352D01*
X175260500Y-61877648D01*
X175228477Y-61675466D01*
X175165220Y-61480781D01*
X175165218Y-61480778D01*
X175165218Y-61480776D01*
X175131503Y-61414607D01*
X175072287Y-61298390D01*
X175064556Y-61287749D01*
X174951971Y-61132786D01*
X174807213Y-60988028D01*
X174641613Y-60867715D01*
X174641612Y-60867714D01*
X174641610Y-60867713D01*
X174584653Y-60838691D01*
X174459223Y-60774781D01*
X174264534Y-60711522D01*
X174089995Y-60683878D01*
X174062352Y-60679500D01*
X173857648Y-60679500D01*
X173833329Y-60683351D01*
X173655465Y-60711522D01*
X173460776Y-60774781D01*
X173278386Y-60867715D01*
X173112786Y-60988028D01*
X172968028Y-61132786D01*
X172847715Y-61298386D01*
X172754781Y-61480776D01*
X172691522Y-61675465D01*
X172659500Y-61877648D01*
X113210500Y-61877648D01*
X113210500Y-60474500D01*
X113230185Y-60407461D01*
X113282989Y-60361706D01*
X113334500Y-60350500D01*
X181085500Y-60350500D01*
X181152539Y-60370185D01*
G37*
%TD.AperFunction*%
%TD*%
M02*
