%TF.GenerationSoftware,KiCad,Pcbnew,9.0.7*%
%TF.CreationDate,2026-07-26T19:05:29+05:45*%
%TF.ProjectId,LDR_Night_Lamp,4c44525f-4e69-4676-9874-5f4c616d702e,rev?*%
%TF.SameCoordinates,Original*%
%TF.FileFunction,Legend,Top*%
%TF.FilePolarity,Positive*%
%FSLAX46Y46*%
G04 Gerber Fmt 4.6, Leading zero omitted, Abs format (unit mm)*
G04 Created by KiCad (PCBNEW 9.0.7) date 2026-07-26 19:05:29*
%MOMM*%
%LPD*%
G01*
G04 APERTURE LIST*
%ADD10C,0.100000*%
%ADD11C,0.150000*%
%ADD12C,0.125000*%
%ADD13C,0.000000*%
%ADD14C,0.120000*%
G04 APERTURE END LIST*
D10*
X143000000Y-96000000D02*
X151500000Y-96000000D01*
X151500000Y-98500000D01*
X143000000Y-98500000D01*
X143000000Y-96000000D01*
X144256265Y-97824800D02*
X144399122Y-97872419D01*
X144399122Y-97872419D02*
X144637217Y-97872419D01*
X144637217Y-97872419D02*
X144732455Y-97824800D01*
X144732455Y-97824800D02*
X144780074Y-97777180D01*
X144780074Y-97777180D02*
X144827693Y-97681942D01*
X144827693Y-97681942D02*
X144827693Y-97586704D01*
X144827693Y-97586704D02*
X144780074Y-97491466D01*
X144780074Y-97491466D02*
X144732455Y-97443847D01*
X144732455Y-97443847D02*
X144637217Y-97396228D01*
X144637217Y-97396228D02*
X144446741Y-97348609D01*
X144446741Y-97348609D02*
X144351503Y-97300990D01*
X144351503Y-97300990D02*
X144303884Y-97253371D01*
X144303884Y-97253371D02*
X144256265Y-97158133D01*
X144256265Y-97158133D02*
X144256265Y-97062895D01*
X144256265Y-97062895D02*
X144303884Y-96967657D01*
X144303884Y-96967657D02*
X144351503Y-96920038D01*
X144351503Y-96920038D02*
X144446741Y-96872419D01*
X144446741Y-96872419D02*
X144684836Y-96872419D01*
X144684836Y-96872419D02*
X144827693Y-96920038D01*
X145256265Y-97872419D02*
X145256265Y-96872419D01*
X145256265Y-97348609D02*
X145827693Y-97348609D01*
X145827693Y-97872419D02*
X145827693Y-96872419D01*
X146256265Y-97586704D02*
X146732455Y-97586704D01*
X146161027Y-97872419D02*
X146494360Y-96872419D01*
X146494360Y-96872419D02*
X146827693Y-97872419D01*
X147732455Y-97872419D02*
X147399122Y-97396228D01*
X147161027Y-97872419D02*
X147161027Y-96872419D01*
X147161027Y-96872419D02*
X147541979Y-96872419D01*
X147541979Y-96872419D02*
X147637217Y-96920038D01*
X147637217Y-96920038D02*
X147684836Y-96967657D01*
X147684836Y-96967657D02*
X147732455Y-97062895D01*
X147732455Y-97062895D02*
X147732455Y-97205752D01*
X147732455Y-97205752D02*
X147684836Y-97300990D01*
X147684836Y-97300990D02*
X147637217Y-97348609D01*
X147637217Y-97348609D02*
X147541979Y-97396228D01*
X147541979Y-97396228D02*
X147161027Y-97396228D01*
X148161027Y-96872419D02*
X148161027Y-97681942D01*
X148161027Y-97681942D02*
X148208646Y-97777180D01*
X148208646Y-97777180D02*
X148256265Y-97824800D01*
X148256265Y-97824800D02*
X148351503Y-97872419D01*
X148351503Y-97872419D02*
X148541979Y-97872419D01*
X148541979Y-97872419D02*
X148637217Y-97824800D01*
X148637217Y-97824800D02*
X148684836Y-97777180D01*
X148684836Y-97777180D02*
X148732455Y-97681942D01*
X148732455Y-97681942D02*
X148732455Y-96872419D01*
X149684836Y-97872419D02*
X149208646Y-97872419D01*
X149208646Y-97872419D02*
X149208646Y-96872419D01*
X150018170Y-97348609D02*
X150351503Y-97348609D01*
X150494360Y-97872419D02*
X150018170Y-97872419D01*
X150018170Y-97872419D02*
X150018170Y-96872419D01*
X150018170Y-96872419D02*
X150494360Y-96872419D01*
D11*
X172793333Y-96054819D02*
X172460000Y-95578628D01*
X172221905Y-96054819D02*
X172221905Y-95054819D01*
X172221905Y-95054819D02*
X172602857Y-95054819D01*
X172602857Y-95054819D02*
X172698095Y-95102438D01*
X172698095Y-95102438D02*
X172745714Y-95150057D01*
X172745714Y-95150057D02*
X172793333Y-95245295D01*
X172793333Y-95245295D02*
X172793333Y-95388152D01*
X172793333Y-95388152D02*
X172745714Y-95483390D01*
X172745714Y-95483390D02*
X172698095Y-95531009D01*
X172698095Y-95531009D02*
X172602857Y-95578628D01*
X172602857Y-95578628D02*
X172221905Y-95578628D01*
X173174286Y-95150057D02*
X173221905Y-95102438D01*
X173221905Y-95102438D02*
X173317143Y-95054819D01*
X173317143Y-95054819D02*
X173555238Y-95054819D01*
X173555238Y-95054819D02*
X173650476Y-95102438D01*
X173650476Y-95102438D02*
X173698095Y-95150057D01*
X173698095Y-95150057D02*
X173745714Y-95245295D01*
X173745714Y-95245295D02*
X173745714Y-95340533D01*
X173745714Y-95340533D02*
X173698095Y-95483390D01*
X173698095Y-95483390D02*
X173126667Y-96054819D01*
X173126667Y-96054819D02*
X173745714Y-96054819D01*
X116454285Y-63311009D02*
X116597142Y-63358628D01*
X116597142Y-63358628D02*
X116644761Y-63406247D01*
X116644761Y-63406247D02*
X116692380Y-63501485D01*
X116692380Y-63501485D02*
X116692380Y-63644342D01*
X116692380Y-63644342D02*
X116644761Y-63739580D01*
X116644761Y-63739580D02*
X116597142Y-63787200D01*
X116597142Y-63787200D02*
X116501904Y-63834819D01*
X116501904Y-63834819D02*
X116120952Y-63834819D01*
X116120952Y-63834819D02*
X116120952Y-62834819D01*
X116120952Y-62834819D02*
X116454285Y-62834819D01*
X116454285Y-62834819D02*
X116549523Y-62882438D01*
X116549523Y-62882438D02*
X116597142Y-62930057D01*
X116597142Y-62930057D02*
X116644761Y-63025295D01*
X116644761Y-63025295D02*
X116644761Y-63120533D01*
X116644761Y-63120533D02*
X116597142Y-63215771D01*
X116597142Y-63215771D02*
X116549523Y-63263390D01*
X116549523Y-63263390D02*
X116454285Y-63311009D01*
X116454285Y-63311009D02*
X116120952Y-63311009D01*
X116978095Y-62834819D02*
X117549523Y-62834819D01*
X117263809Y-63834819D02*
X117263809Y-62834819D01*
X118406666Y-63834819D02*
X117835238Y-63834819D01*
X118120952Y-63834819D02*
X118120952Y-62834819D01*
X118120952Y-62834819D02*
X118025714Y-62977676D01*
X118025714Y-62977676D02*
X117930476Y-63072914D01*
X117930476Y-63072914D02*
X117835238Y-63120533D01*
X121176779Y-83833866D02*
X121938684Y-83833866D01*
X121176779Y-70953866D02*
X121938684Y-70953866D01*
X121557731Y-71334819D02*
X121557731Y-70572914D01*
X172044819Y-69766666D02*
X171568628Y-70099999D01*
X172044819Y-70338094D02*
X171044819Y-70338094D01*
X171044819Y-70338094D02*
X171044819Y-69957142D01*
X171044819Y-69957142D02*
X171092438Y-69861904D01*
X171092438Y-69861904D02*
X171140057Y-69814285D01*
X171140057Y-69814285D02*
X171235295Y-69766666D01*
X171235295Y-69766666D02*
X171378152Y-69766666D01*
X171378152Y-69766666D02*
X171473390Y-69814285D01*
X171473390Y-69814285D02*
X171521009Y-69861904D01*
X171521009Y-69861904D02*
X171568628Y-69957142D01*
X171568628Y-69957142D02*
X171568628Y-70338094D01*
X172044819Y-68814285D02*
X172044819Y-69385713D01*
X172044819Y-69099999D02*
X171044819Y-69099999D01*
X171044819Y-69099999D02*
X171187676Y-69195237D01*
X171187676Y-69195237D02*
X171282914Y-69290475D01*
X171282914Y-69290475D02*
X171330533Y-69385713D01*
X172221905Y-82054819D02*
X172221905Y-81054819D01*
X172221905Y-81054819D02*
X172460000Y-81054819D01*
X172460000Y-81054819D02*
X172602857Y-81102438D01*
X172602857Y-81102438D02*
X172698095Y-81197676D01*
X172698095Y-81197676D02*
X172745714Y-81292914D01*
X172745714Y-81292914D02*
X172793333Y-81483390D01*
X172793333Y-81483390D02*
X172793333Y-81626247D01*
X172793333Y-81626247D02*
X172745714Y-81816723D01*
X172745714Y-81816723D02*
X172698095Y-81911961D01*
X172698095Y-81911961D02*
X172602857Y-82007200D01*
X172602857Y-82007200D02*
X172460000Y-82054819D01*
X172460000Y-82054819D02*
X172221905Y-82054819D01*
X173745714Y-82054819D02*
X173174286Y-82054819D01*
X173460000Y-82054819D02*
X173460000Y-81054819D01*
X173460000Y-81054819D02*
X173364762Y-81197676D01*
X173364762Y-81197676D02*
X173269524Y-81292914D01*
X173269524Y-81292914D02*
X173174286Y-81340533D01*
X172864761Y-90650057D02*
X172769523Y-90602438D01*
X172769523Y-90602438D02*
X172674285Y-90507200D01*
X172674285Y-90507200D02*
X172531428Y-90364342D01*
X172531428Y-90364342D02*
X172436190Y-90316723D01*
X172436190Y-90316723D02*
X172340952Y-90316723D01*
X172388571Y-90554819D02*
X172293333Y-90507200D01*
X172293333Y-90507200D02*
X172198095Y-90411961D01*
X172198095Y-90411961D02*
X172150476Y-90221485D01*
X172150476Y-90221485D02*
X172150476Y-89888152D01*
X172150476Y-89888152D02*
X172198095Y-89697676D01*
X172198095Y-89697676D02*
X172293333Y-89602438D01*
X172293333Y-89602438D02*
X172388571Y-89554819D01*
X172388571Y-89554819D02*
X172579047Y-89554819D01*
X172579047Y-89554819D02*
X172674285Y-89602438D01*
X172674285Y-89602438D02*
X172769523Y-89697676D01*
X172769523Y-89697676D02*
X172817142Y-89888152D01*
X172817142Y-89888152D02*
X172817142Y-90221485D01*
X172817142Y-90221485D02*
X172769523Y-90411961D01*
X172769523Y-90411961D02*
X172674285Y-90507200D01*
X172674285Y-90507200D02*
X172579047Y-90554819D01*
X172579047Y-90554819D02*
X172388571Y-90554819D01*
X173769523Y-90554819D02*
X173198095Y-90554819D01*
X173483809Y-90554819D02*
X173483809Y-89554819D01*
X173483809Y-89554819D02*
X173388571Y-89697676D01*
X173388571Y-89697676D02*
X173293333Y-89792914D01*
X173293333Y-89792914D02*
X173198095Y-89840533D01*
D12*
X171916119Y-67266666D02*
X171439928Y-67599999D01*
X171916119Y-67838094D02*
X170916119Y-67838094D01*
X170916119Y-67838094D02*
X170916119Y-67457142D01*
X170916119Y-67457142D02*
X170963738Y-67361904D01*
X170963738Y-67361904D02*
X171011357Y-67314285D01*
X171011357Y-67314285D02*
X171106595Y-67266666D01*
X171106595Y-67266666D02*
X171249452Y-67266666D01*
X171249452Y-67266666D02*
X171344690Y-67314285D01*
X171344690Y-67314285D02*
X171392309Y-67361904D01*
X171392309Y-67361904D02*
X171439928Y-67457142D01*
X171439928Y-67457142D02*
X171439928Y-67838094D01*
X170916119Y-66933332D02*
X170916119Y-66314285D01*
X170916119Y-66314285D02*
X171297071Y-66647618D01*
X171297071Y-66647618D02*
X171297071Y-66504761D01*
X171297071Y-66504761D02*
X171344690Y-66409523D01*
X171344690Y-66409523D02*
X171392309Y-66361904D01*
X171392309Y-66361904D02*
X171487547Y-66314285D01*
X171487547Y-66314285D02*
X171725642Y-66314285D01*
X171725642Y-66314285D02*
X171820880Y-66361904D01*
X171820880Y-66361904D02*
X171868500Y-66409523D01*
X171868500Y-66409523D02*
X171916119Y-66504761D01*
X171916119Y-66504761D02*
X171916119Y-66790475D01*
X171916119Y-66790475D02*
X171868500Y-66885713D01*
X171868500Y-66885713D02*
X171820880Y-66933332D01*
D13*
%TO.C,G\u002A\u002A\u002A*%
G36*
X114389716Y-96874033D02*
G01*
X114393662Y-96880867D01*
X114390263Y-96890386D01*
X114386539Y-96894712D01*
X114374444Y-96902351D01*
X114358987Y-96906850D01*
X114345016Y-96906980D01*
X114341924Y-96906022D01*
X114336080Y-96899474D01*
X114337360Y-96890132D01*
X114344932Y-96880867D01*
X114350228Y-96877456D01*
X114366357Y-96871548D01*
X114380067Y-96870667D01*
X114389716Y-96874033D01*
G37*
G36*
X115388387Y-96716030D02*
G01*
X115394589Y-96720587D01*
X115402800Y-96730506D01*
X115414378Y-96746956D01*
X115420685Y-96756260D01*
X115434980Y-96779066D01*
X115442910Y-96796365D01*
X115444839Y-96809730D01*
X115441133Y-96820731D01*
X115436942Y-96826214D01*
X115431552Y-96832896D01*
X115433325Y-96835426D01*
X115443223Y-96835820D01*
X115457316Y-96839124D01*
X115470256Y-96850165D01*
X115471092Y-96851144D01*
X115480707Y-96865416D01*
X115481924Y-96876487D01*
X115474310Y-96885471D01*
X115457430Y-96893485D01*
X115454182Y-96894635D01*
X115426602Y-96902200D01*
X115405867Y-96903434D01*
X115391381Y-96898335D01*
X115387119Y-96894424D01*
X115378974Y-96887052D01*
X115373452Y-96884657D01*
X115372581Y-96884093D01*
X115387330Y-96884093D01*
X115392233Y-96886149D01*
X115395883Y-96885572D01*
X115405122Y-96883685D01*
X115417249Y-96881498D01*
X115426549Y-96880439D01*
X115427319Y-96882198D01*
X115424880Y-96884171D01*
X115413855Y-96888822D01*
X115409008Y-96889465D01*
X115401758Y-96891878D01*
X115400461Y-96894517D01*
X115403305Y-96897167D01*
X115412468Y-96896622D01*
X115428898Y-96892724D01*
X115450519Y-96886272D01*
X115466599Y-96879416D01*
X115473299Y-96871437D01*
X115471002Y-96861531D01*
X115465634Y-96854518D01*
X115452539Y-96846753D01*
X115435138Y-96847684D01*
X115413377Y-96857315D01*
X115408377Y-96860362D01*
X115396191Y-96869608D01*
X115388912Y-96878049D01*
X115387330Y-96884093D01*
X115372581Y-96884093D01*
X115367778Y-96880985D01*
X115359156Y-96871613D01*
X115353782Y-96864574D01*
X115341320Y-96848038D01*
X115327196Y-96830508D01*
X115322501Y-96824981D01*
X115312919Y-96813484D01*
X115309168Y-96806751D01*
X115310509Y-96802316D01*
X115314674Y-96798824D01*
X115323885Y-96794902D01*
X115329146Y-96795571D01*
X115330411Y-96799006D01*
X115325985Y-96800657D01*
X115319207Y-96802903D01*
X115318722Y-96806977D01*
X115324972Y-96814689D01*
X115330869Y-96820579D01*
X115341261Y-96831821D01*
X115348971Y-96842051D01*
X115349581Y-96843082D01*
X115352045Y-96845375D01*
X115353283Y-96840583D01*
X115353380Y-96827782D01*
X115352625Y-96809851D01*
X115352671Y-96803179D01*
X115359348Y-96803179D01*
X115361109Y-96821761D01*
X115364443Y-96838734D01*
X115368212Y-96852516D01*
X115371789Y-96861561D01*
X115374549Y-96864325D01*
X115375866Y-96859264D01*
X115375894Y-96858226D01*
X115377391Y-96847882D01*
X115380996Y-96833711D01*
X115385733Y-96818675D01*
X115390628Y-96805739D01*
X115394704Y-96797864D01*
X115396125Y-96796750D01*
X115396693Y-96801023D01*
X115394777Y-96812274D01*
X115390787Y-96828154D01*
X115390349Y-96829700D01*
X115385655Y-96846671D01*
X115382279Y-96859937D01*
X115380928Y-96866718D01*
X115380926Y-96866810D01*
X115384058Y-96865526D01*
X115392424Y-96858541D01*
X115404482Y-96847189D01*
X115410229Y-96841487D01*
X115423602Y-96827351D01*
X115433774Y-96815306D01*
X115439109Y-96807339D01*
X115439531Y-96805881D01*
X115437027Y-96799366D01*
X115430468Y-96787461D01*
X115421279Y-96772359D01*
X115410888Y-96756255D01*
X115400721Y-96741342D01*
X115392206Y-96729813D01*
X115386769Y-96723864D01*
X115385951Y-96723495D01*
X115377089Y-96728028D01*
X115369487Y-96740281D01*
X115363656Y-96758236D01*
X115360106Y-96779875D01*
X115359348Y-96803179D01*
X115352671Y-96803179D01*
X115352849Y-96777413D01*
X115356974Y-96750638D01*
X115364689Y-96730715D01*
X115375682Y-96718831D01*
X115376569Y-96718330D01*
X115382833Y-96715668D01*
X115388387Y-96716030D01*
G37*
G36*
X116174661Y-96524708D02*
G01*
X116202588Y-96532663D01*
X116217281Y-96540861D01*
X116236557Y-96558798D01*
X116254671Y-96583790D01*
X116269891Y-96613140D01*
X116278124Y-96635589D01*
X116283055Y-96650871D01*
X116287303Y-96662213D01*
X116289322Y-96666210D01*
X116293374Y-96664441D01*
X116301074Y-96656219D01*
X116310781Y-96643304D01*
X116311131Y-96642797D01*
X116342321Y-96604767D01*
X116378086Y-96574078D01*
X116417300Y-96551560D01*
X116450021Y-96540084D01*
X116480505Y-96534550D01*
X116505374Y-96535592D01*
X116526566Y-96543596D01*
X116546020Y-96558944D01*
X116546229Y-96559153D01*
X116564936Y-96584502D01*
X116575405Y-96614515D01*
X116577650Y-96648627D01*
X116571685Y-96686278D01*
X116557525Y-96726905D01*
X116541174Y-96759633D01*
X116524526Y-96786617D01*
X116502580Y-96818250D01*
X116476997Y-96852329D01*
X116449439Y-96886649D01*
X116421565Y-96919007D01*
X116418445Y-96922469D01*
X116401533Y-96940514D01*
X116381241Y-96961175D01*
X116358702Y-96983401D01*
X116335047Y-97006142D01*
X116311407Y-97028350D01*
X116288915Y-97048973D01*
X116268702Y-97066963D01*
X116251900Y-97081269D01*
X116239640Y-97090842D01*
X116233056Y-97094633D01*
X116232808Y-97094655D01*
X116227412Y-97090766D01*
X116218231Y-97080198D01*
X116206584Y-97064599D01*
X116194705Y-97047039D01*
X116151729Y-96978319D01*
X116115617Y-96915631D01*
X116086446Y-96859123D01*
X116064294Y-96808945D01*
X116049237Y-96765246D01*
X116049169Y-96765006D01*
X116042161Y-96732885D01*
X116038250Y-96698601D01*
X116037737Y-96676909D01*
X116054874Y-96676909D01*
X116058133Y-96712416D01*
X116067601Y-96753741D01*
X116082814Y-96799568D01*
X116103309Y-96848582D01*
X116128624Y-96899467D01*
X116141403Y-96922520D01*
X116154629Y-96945132D01*
X116169311Y-96969413D01*
X116184528Y-96993932D01*
X116199356Y-97017256D01*
X116212875Y-97037954D01*
X116224162Y-97054594D01*
X116232295Y-97065746D01*
X116236352Y-97069978D01*
X116236385Y-97069982D01*
X116241071Y-97066973D01*
X116251321Y-97058613D01*
X116265566Y-97046226D01*
X116280339Y-97032881D01*
X116329775Y-96985920D01*
X116376550Y-96938391D01*
X116419672Y-96891431D01*
X116458149Y-96846179D01*
X116490988Y-96803773D01*
X116517200Y-96765352D01*
X116525614Y-96751340D01*
X116542794Y-96715808D01*
X116553457Y-96681451D01*
X116557845Y-96649237D01*
X116556198Y-96620135D01*
X116548758Y-96595111D01*
X116535765Y-96575136D01*
X116517460Y-96561176D01*
X116494086Y-96554201D01*
X116476454Y-96553859D01*
X116444495Y-96560773D01*
X116411692Y-96576153D01*
X116379379Y-96598942D01*
X116348885Y-96628085D01*
X116321542Y-96662523D01*
X116304266Y-96690530D01*
X116294540Y-96707420D01*
X116286157Y-96720425D01*
X116280421Y-96727585D01*
X116279081Y-96728379D01*
X116275896Y-96724152D01*
X116274639Y-96714509D01*
X116272364Y-96692020D01*
X116266197Y-96665427D01*
X116257130Y-96637380D01*
X116246153Y-96610527D01*
X116234257Y-96587520D01*
X116222432Y-96571007D01*
X116220115Y-96568672D01*
X116197451Y-96553354D01*
X116171639Y-96545271D01*
X116144860Y-96544293D01*
X116119298Y-96550286D01*
X116097135Y-96563119D01*
X116084262Y-96576864D01*
X116073126Y-96597377D01*
X116063728Y-96623619D01*
X116057251Y-96651571D01*
X116054874Y-96676909D01*
X116037737Y-96676909D01*
X116037450Y-96664747D01*
X116039775Y-96633917D01*
X116045239Y-96608705D01*
X116048292Y-96600806D01*
X116063826Y-96574432D01*
X116083692Y-96551793D01*
X116105587Y-96535287D01*
X116116062Y-96530276D01*
X116144726Y-96523798D01*
X116174661Y-96524708D01*
G37*
G36*
X114241909Y-97614981D02*
G01*
X114267160Y-97615394D01*
X114286547Y-97616337D01*
X114302021Y-97617981D01*
X114315533Y-97620500D01*
X114329034Y-97624063D01*
X114335820Y-97626114D01*
X114371531Y-97639523D01*
X114398130Y-97655027D01*
X114416140Y-97673123D01*
X114426086Y-97694312D01*
X114428591Y-97714560D01*
X114425293Y-97738476D01*
X114414929Y-97762899D01*
X114396858Y-97788985D01*
X114372250Y-97816077D01*
X114346884Y-97839505D01*
X114322699Y-97856930D01*
X114301243Y-97868576D01*
X114279734Y-97878162D01*
X114263634Y-97883998D01*
X114253624Y-97886189D01*
X114250385Y-97884839D01*
X114254598Y-97880053D01*
X114266944Y-97871935D01*
X114279147Y-97865187D01*
X114311463Y-97845348D01*
X114340760Y-97821990D01*
X114365858Y-97796501D01*
X114385572Y-97770270D01*
X114398721Y-97744685D01*
X114404120Y-97721136D01*
X114404191Y-97718393D01*
X114399489Y-97698475D01*
X114386080Y-97680185D01*
X114365015Y-97664654D01*
X114346513Y-97656120D01*
X114312487Y-97647004D01*
X114271755Y-97641992D01*
X114226388Y-97640899D01*
X114178458Y-97643541D01*
X114130035Y-97649733D01*
X114083189Y-97659291D01*
X114039991Y-97672030D01*
X114004958Y-97686545D01*
X113982707Y-97699817D01*
X113962165Y-97716223D01*
X113945456Y-97733716D01*
X113934704Y-97750248D01*
X113932480Y-97756395D01*
X113930657Y-97780467D01*
X113935483Y-97806515D01*
X113946080Y-97830285D01*
X113948441Y-97833862D01*
X113960610Y-97848189D01*
X113976689Y-97861322D01*
X113997839Y-97873867D01*
X114025218Y-97886432D01*
X114059987Y-97899624D01*
X114098961Y-97912664D01*
X114150830Y-97930195D01*
X114193882Y-97946894D01*
X114228978Y-97963250D01*
X114256979Y-97979753D01*
X114278746Y-97996893D01*
X114295139Y-98015160D01*
X114304192Y-98029461D01*
X114311181Y-98040024D01*
X114317213Y-98045181D01*
X114318660Y-98045238D01*
X114325761Y-98042806D01*
X114338905Y-98038512D01*
X114350471Y-98034807D01*
X114370418Y-98026583D01*
X114383346Y-98016224D01*
X114387098Y-98011190D01*
X114397100Y-97999262D01*
X114411145Y-97986464D01*
X114417832Y-97981398D01*
X114432345Y-97972605D01*
X114446963Y-97967649D01*
X114465994Y-97965203D01*
X114471552Y-97964851D01*
X114490423Y-97964313D01*
X114502880Y-97965708D01*
X114512184Y-97969655D01*
X114517737Y-97973604D01*
X114526830Y-97982776D01*
X114531117Y-97991040D01*
X114531167Y-97991725D01*
X114530186Y-97996395D01*
X114525575Y-97995352D01*
X114519129Y-97991371D01*
X114499995Y-97984356D01*
X114477709Y-97985061D01*
X114454334Y-97992948D01*
X114431936Y-98007477D01*
X114422096Y-98016695D01*
X114413167Y-98029639D01*
X114409888Y-98042169D01*
X114412463Y-98051753D01*
X114418969Y-98055615D01*
X114426283Y-98053763D01*
X114439283Y-98047595D01*
X114455580Y-98038291D01*
X114461533Y-98034569D01*
X114484256Y-98021140D01*
X114501228Y-98014313D01*
X114513972Y-98014174D01*
X114524010Y-98020804D01*
X114532865Y-98034289D01*
X114535013Y-98038615D01*
X114545022Y-98055157D01*
X114555604Y-98065292D01*
X114558200Y-98066572D01*
X114574914Y-98068733D01*
X114598026Y-98065563D01*
X114625988Y-98057415D01*
X114657251Y-98044639D01*
X114659393Y-98043642D01*
X114676914Y-98036010D01*
X114691062Y-98030943D01*
X114699592Y-98029203D01*
X114700904Y-98029582D01*
X114700066Y-98034945D01*
X114692432Y-98043706D01*
X114679726Y-98054486D01*
X114663671Y-98065908D01*
X114645992Y-98076591D01*
X114635240Y-98082112D01*
X114602315Y-98094698D01*
X114573049Y-98099765D01*
X114548158Y-98097398D01*
X114528363Y-98087683D01*
X114514380Y-98070706D01*
X114512814Y-98067506D01*
X114507420Y-98055761D01*
X114503981Y-98048518D01*
X114503551Y-98047699D01*
X114499458Y-98049282D01*
X114490415Y-98055292D01*
X114486175Y-98058442D01*
X114468459Y-98070094D01*
X114448566Y-98080360D01*
X114429763Y-98087759D01*
X114415320Y-98090806D01*
X114414804Y-98090817D01*
X114402366Y-98086850D01*
X114389574Y-98076790D01*
X114379425Y-98063719D01*
X114374916Y-98050718D01*
X114374889Y-98049789D01*
X114374020Y-98040424D01*
X114372285Y-98037204D01*
X114366828Y-98039238D01*
X114355554Y-98044472D01*
X114345877Y-98049267D01*
X114322072Y-98061329D01*
X114324532Y-98099324D01*
X114323398Y-98144338D01*
X114314875Y-98190150D01*
X114299787Y-98234246D01*
X114278955Y-98274115D01*
X114258214Y-98301836D01*
X114226655Y-98331109D01*
X114189766Y-98354938D01*
X114149521Y-98372589D01*
X114107898Y-98383326D01*
X114066870Y-98386414D01*
X114038815Y-98383490D01*
X114012190Y-98374694D01*
X113990912Y-98360227D01*
X113976326Y-98341425D01*
X113969774Y-98319622D01*
X113969544Y-98314574D01*
X113970141Y-98311695D01*
X114000299Y-98311695D01*
X114000922Y-98323178D01*
X114009116Y-98336888D01*
X114024894Y-98346906D01*
X114046687Y-98352965D01*
X114072930Y-98354793D01*
X114102057Y-98352120D01*
X114130095Y-98345442D01*
X114167105Y-98330879D01*
X114198185Y-98311343D01*
X114226759Y-98284670D01*
X114227380Y-98283993D01*
X114253887Y-98248347D01*
X114274171Y-98207254D01*
X114287180Y-98163406D01*
X114291865Y-98119493D01*
X114291867Y-98118700D01*
X114291577Y-98099084D01*
X114289698Y-98087300D01*
X114284713Y-98082681D01*
X114275106Y-98084559D01*
X114259362Y-98092267D01*
X114247095Y-98098995D01*
X114195479Y-98128962D01*
X114148713Y-98158950D01*
X114107338Y-98188467D01*
X114071896Y-98217018D01*
X114042929Y-98244110D01*
X114020979Y-98269249D01*
X114006589Y-98291942D01*
X114000299Y-98311695D01*
X113970141Y-98311695D01*
X113974027Y-98292939D01*
X113987043Y-98268555D01*
X114007942Y-98242003D01*
X114036076Y-98213866D01*
X114070795Y-98184723D01*
X114111450Y-98155156D01*
X114157391Y-98125746D01*
X114207971Y-98097076D01*
X114218927Y-98091304D01*
X114282226Y-98058379D01*
X114267946Y-98038666D01*
X114256081Y-98024219D01*
X114242075Y-98011380D01*
X114224690Y-97999493D01*
X114202693Y-97987904D01*
X114174847Y-97975957D01*
X114139917Y-97963000D01*
X114098961Y-97949129D01*
X114052959Y-97933410D01*
X114015416Y-97919084D01*
X113985236Y-97905514D01*
X113961325Y-97892066D01*
X113942587Y-97878103D01*
X113927927Y-97862990D01*
X113916248Y-97846092D01*
X113913746Y-97841661D01*
X113901156Y-97810291D01*
X113896645Y-97778502D01*
X113900347Y-97748349D01*
X113906654Y-97731720D01*
X113923824Y-97707131D01*
X113949783Y-97683878D01*
X113983580Y-97662550D01*
X114024266Y-97643735D01*
X114070889Y-97628020D01*
X114076987Y-97626330D01*
X114093434Y-97622187D01*
X114108926Y-97619181D01*
X114125541Y-97617134D01*
X114145359Y-97615864D01*
X114170457Y-97615193D01*
X114202913Y-97614940D01*
X114208844Y-97614926D01*
X114241909Y-97614981D01*
G37*
G36*
X115442373Y-97718375D02*
G01*
X115461622Y-97726745D01*
X115477829Y-97742848D01*
X115489882Y-97766767D01*
X115493264Y-97778423D01*
X115496234Y-97810989D01*
X115490641Y-97845986D01*
X115477029Y-97882313D01*
X115455942Y-97918870D01*
X115427923Y-97954556D01*
X115393517Y-97988273D01*
X115386630Y-97994096D01*
X115370496Y-98006506D01*
X115360949Y-98011844D01*
X115358095Y-98010342D01*
X115362039Y-98002235D01*
X115372888Y-97987758D01*
X115379958Y-97979334D01*
X115413873Y-97936990D01*
X115439266Y-97898505D01*
X115456360Y-97863378D01*
X115465374Y-97831108D01*
X115466529Y-97801196D01*
X115464386Y-97787660D01*
X115456293Y-97766325D01*
X115444095Y-97753666D01*
X115428671Y-97749961D01*
X115410901Y-97755485D01*
X115396175Y-97766201D01*
X115378015Y-97788172D01*
X115362679Y-97817718D01*
X115350607Y-97852942D01*
X115342238Y-97891949D01*
X115338011Y-97932843D01*
X115338364Y-97973726D01*
X115341653Y-98001808D01*
X115344804Y-98018898D01*
X115347631Y-98031458D01*
X115349587Y-98037102D01*
X115349767Y-98037204D01*
X115354397Y-98034408D01*
X115364422Y-98027095D01*
X115377069Y-98017318D01*
X115406032Y-97996662D01*
X115431375Y-97983649D01*
X115454563Y-97977582D01*
X115461744Y-97976994D01*
X115481127Y-97978960D01*
X115497322Y-97987262D01*
X115511749Y-98003021D01*
X115525829Y-98027358D01*
X115525952Y-98027607D01*
X115539297Y-98051514D01*
X115551434Y-98066433D01*
X115562978Y-98072973D01*
X115571521Y-98072771D01*
X115580186Y-98068257D01*
X115592971Y-98059050D01*
X115605724Y-98048352D01*
X115619726Y-98037046D01*
X115627802Y-98033207D01*
X115629559Y-98036547D01*
X115624603Y-98046781D01*
X115617587Y-98057006D01*
X115603937Y-98071703D01*
X115587206Y-98084420D01*
X115570513Y-98093104D01*
X115558618Y-98095783D01*
X115543565Y-98091155D01*
X115528089Y-98077859D01*
X115513231Y-98056887D01*
X115508256Y-98047696D01*
X115497234Y-98027832D01*
X115486512Y-98013904D01*
X115475059Y-98006032D01*
X115461845Y-98004342D01*
X115445840Y-98008954D01*
X115426015Y-98019992D01*
X115401340Y-98037578D01*
X115370784Y-98061835D01*
X115367591Y-98064448D01*
X115351569Y-98073576D01*
X115337525Y-98073726D01*
X115326500Y-98065019D01*
X115323248Y-98059262D01*
X115317616Y-98046901D01*
X115295812Y-98063544D01*
X115272661Y-98077898D01*
X115245741Y-98089460D01*
X115218394Y-98097125D01*
X115193960Y-98099788D01*
X115187291Y-98099403D01*
X115164765Y-98093275D01*
X115148404Y-98080040D01*
X115138363Y-98062647D01*
X115132951Y-98052750D01*
X115128278Y-98048845D01*
X115127593Y-98049032D01*
X115121694Y-98052887D01*
X115110336Y-98060451D01*
X115098214Y-98068584D01*
X115071416Y-98083393D01*
X115048312Y-98089214D01*
X115028786Y-98086053D01*
X115012717Y-98073912D01*
X115010984Y-98071813D01*
X115005637Y-98066615D01*
X115001554Y-98069673D01*
X115000096Y-98071999D01*
X114986614Y-98091702D01*
X114968507Y-98114403D01*
X114947375Y-98138455D01*
X114924816Y-98162206D01*
X114902432Y-98184007D01*
X114881823Y-98202208D01*
X114864587Y-98215160D01*
X114857076Y-98219471D01*
X114840862Y-98225982D01*
X114829316Y-98226965D01*
X114819150Y-98222557D01*
X114817144Y-98221152D01*
X114809461Y-98210034D01*
X114804809Y-98191135D01*
X114803188Y-98165958D01*
X114804601Y-98136008D01*
X114809047Y-98102790D01*
X114816529Y-98067806D01*
X114817029Y-98065861D01*
X114820787Y-98050200D01*
X114822952Y-98038830D01*
X114823103Y-98034492D01*
X114817797Y-98034465D01*
X114806518Y-98036380D01*
X114802074Y-98037357D01*
X114775878Y-98041310D01*
X114751356Y-98041189D01*
X114731705Y-98037086D01*
X114727492Y-98035226D01*
X114706001Y-98019369D01*
X114692167Y-97999222D01*
X114686313Y-97976571D01*
X114686934Y-97970652D01*
X114713514Y-97970652D01*
X114715886Y-97980938D01*
X114719354Y-97986864D01*
X114725463Y-97995114D01*
X114729301Y-97995696D01*
X114732509Y-97991092D01*
X114735490Y-97981785D01*
X114738300Y-97966450D01*
X114739932Y-97952491D01*
X114742570Y-97922438D01*
X114732284Y-97931575D01*
X114723557Y-97942677D01*
X114716658Y-97956900D01*
X114716490Y-97957400D01*
X114713514Y-97970652D01*
X114686934Y-97970652D01*
X114688764Y-97953198D01*
X114699843Y-97930889D01*
X114707041Y-97922373D01*
X114724476Y-97907988D01*
X114739471Y-97902309D01*
X114751413Y-97904450D01*
X114759690Y-97913523D01*
X114763687Y-97928640D01*
X114762793Y-97948913D01*
X114756393Y-97973455D01*
X114751240Y-97986368D01*
X114741714Y-98007902D01*
X114754616Y-98007902D01*
X114765410Y-98007211D01*
X114782615Y-98005378D01*
X114802987Y-98002757D01*
X114808624Y-98001959D01*
X114828648Y-97999190D01*
X114841358Y-97998119D01*
X114849096Y-97998986D01*
X114854205Y-98002033D01*
X114858713Y-98007109D01*
X114864751Y-98017738D01*
X114863561Y-98028908D01*
X114862677Y-98031366D01*
X114858150Y-98045349D01*
X114852774Y-98065084D01*
X114847146Y-98087943D01*
X114841866Y-98111302D01*
X114837534Y-98132536D01*
X114834749Y-98149018D01*
X114834036Y-98156854D01*
X114835532Y-98169883D01*
X114838596Y-98178605D01*
X114842757Y-98182096D01*
X114849140Y-98181722D01*
X114858532Y-98176916D01*
X114871719Y-98167113D01*
X114889486Y-98151750D01*
X114912620Y-98130260D01*
X114932815Y-98110896D01*
X114959164Y-98084881D01*
X114979062Y-98063897D01*
X114993563Y-98046727D01*
X115003720Y-98032148D01*
X115008734Y-98022990D01*
X115025596Y-97997252D01*
X115047807Y-97979207D01*
X115076070Y-97968421D01*
X115102883Y-97964760D01*
X115120972Y-97964063D01*
X115132481Y-97965034D01*
X115140560Y-97968460D01*
X115148355Y-97975128D01*
X115149723Y-97976485D01*
X115157425Y-97986572D01*
X115157155Y-97992138D01*
X115149669Y-97991957D01*
X115142218Y-97988684D01*
X115125728Y-97984314D01*
X115106146Y-97985735D01*
X115085561Y-97991869D01*
X115066063Y-98001639D01*
X115049738Y-98013966D01*
X115038678Y-98027773D01*
X115034970Y-98041982D01*
X115035155Y-98043932D01*
X115038548Y-98052332D01*
X115046109Y-98054868D01*
X115058763Y-98051386D01*
X115077436Y-98041732D01*
X115088535Y-98035031D01*
X115107723Y-98024115D01*
X115124680Y-98016330D01*
X115136771Y-98012861D01*
X115138106Y-98012786D01*
X115146540Y-98013957D01*
X115152904Y-98018898D01*
X115159272Y-98029748D01*
X115163517Y-98038984D01*
X115173858Y-98057907D01*
X115183879Y-98067275D01*
X115185878Y-98067999D01*
X115200964Y-98068838D01*
X115222087Y-98065913D01*
X115246545Y-98059824D01*
X115271637Y-98051170D01*
X115282459Y-98046579D01*
X115299080Y-98038520D01*
X115308047Y-98032511D01*
X115310894Y-98027296D01*
X115310229Y-98023833D01*
X115308479Y-98015351D01*
X115306631Y-97999786D01*
X115304976Y-97979811D01*
X115304302Y-97968833D01*
X115305245Y-97918994D01*
X115312857Y-97868337D01*
X115326465Y-97820293D01*
X115339379Y-97789688D01*
X115357175Y-97760609D01*
X115377483Y-97738856D01*
X115399193Y-97724512D01*
X115421193Y-97717658D01*
X115442373Y-97718375D01*
G37*
G36*
X114056912Y-96149355D02*
G01*
X114057499Y-96149694D01*
X114063225Y-96156514D01*
X114071075Y-96170091D01*
X114079843Y-96187999D01*
X114088322Y-96207812D01*
X114093921Y-96222918D01*
X114097917Y-96240274D01*
X114100675Y-96263413D01*
X114102127Y-96289415D01*
X114102211Y-96315361D01*
X114100861Y-96338332D01*
X114098013Y-96355408D01*
X114096929Y-96358758D01*
X114092936Y-96370098D01*
X114092851Y-96374621D01*
X114097512Y-96372255D01*
X114107753Y-96362928D01*
X114113510Y-96357320D01*
X114125329Y-96346723D01*
X114134552Y-96340286D01*
X114138870Y-96339338D01*
X114137283Y-96344127D01*
X114130046Y-96353899D01*
X114118545Y-96366863D01*
X114113333Y-96372268D01*
X114084310Y-96401711D01*
X114122005Y-96383880D01*
X114150131Y-96372537D01*
X114178942Y-96364348D01*
X114206734Y-96359452D01*
X114231801Y-96357988D01*
X114252437Y-96360093D01*
X114266936Y-96365907D01*
X114272224Y-96371668D01*
X114273366Y-96376474D01*
X114271171Y-96382492D01*
X114264643Y-96391010D01*
X114252787Y-96403320D01*
X114234607Y-96420711D01*
X114233750Y-96421515D01*
X114213695Y-96439519D01*
X114192941Y-96456780D01*
X114174202Y-96471109D01*
X114162414Y-96479033D01*
X114134444Y-96495848D01*
X114111164Y-96487580D01*
X114095705Y-96482157D01*
X114087526Y-96480266D01*
X114084620Y-96482412D01*
X114084982Y-96489099D01*
X114085713Y-96493979D01*
X114085057Y-96511518D01*
X114079790Y-96532805D01*
X114071272Y-96553857D01*
X114060865Y-96570695D01*
X114058569Y-96573322D01*
X114043893Y-96583577D01*
X114027366Y-96587321D01*
X114011997Y-96584419D01*
X114001565Y-96575898D01*
X113995165Y-96560889D01*
X113995193Y-96554780D01*
X114004301Y-96554780D01*
X114008404Y-96568367D01*
X114011812Y-96572938D01*
X114021023Y-96580305D01*
X114030509Y-96580393D01*
X114042727Y-96572966D01*
X114046872Y-96569592D01*
X114058096Y-96555980D01*
X114068052Y-96536891D01*
X114074861Y-96516599D01*
X114076771Y-96501639D01*
X114075004Y-96490400D01*
X114070936Y-96475861D01*
X114070082Y-96473384D01*
X114066067Y-96458968D01*
X114067225Y-96452779D01*
X114073524Y-96454857D01*
X114079701Y-96460034D01*
X114091083Y-96467691D01*
X114106810Y-96474846D01*
X114112758Y-96476857D01*
X114124615Y-96480136D01*
X114133372Y-96480782D01*
X114142153Y-96478054D01*
X114154079Y-96471213D01*
X114164370Y-96464615D01*
X114178814Y-96454363D01*
X114195566Y-96441064D01*
X114213133Y-96426093D01*
X114230021Y-96410827D01*
X114244735Y-96396643D01*
X114255783Y-96384918D01*
X114261671Y-96377027D01*
X114262024Y-96374609D01*
X114254393Y-96371840D01*
X114240009Y-96370177D01*
X114221834Y-96369704D01*
X114202830Y-96370503D01*
X114186889Y-96372485D01*
X114160807Y-96379822D01*
X114132486Y-96391864D01*
X114106011Y-96406632D01*
X114086752Y-96420967D01*
X114069659Y-96436395D01*
X114094078Y-96433172D01*
X114112323Y-96430146D01*
X114129466Y-96426327D01*
X114134695Y-96424842D01*
X114146281Y-96422163D01*
X114153357Y-96422320D01*
X114153759Y-96422598D01*
X114152288Y-96426303D01*
X114143479Y-96430995D01*
X114129600Y-96435910D01*
X114112923Y-96440284D01*
X114095716Y-96443351D01*
X114090459Y-96443932D01*
X114072467Y-96446220D01*
X114061412Y-96450424D01*
X114054466Y-96458651D01*
X114048800Y-96473008D01*
X114047963Y-96475581D01*
X114042979Y-96488173D01*
X114038359Y-96495653D01*
X114035297Y-96496991D01*
X114034988Y-96491157D01*
X114036088Y-96485825D01*
X114037260Y-96476803D01*
X114034911Y-96475237D01*
X114030069Y-96479940D01*
X114023764Y-96489726D01*
X114017023Y-96503409D01*
X114013682Y-96511683D01*
X114006045Y-96536375D01*
X114004301Y-96554780D01*
X113995193Y-96554780D01*
X113995249Y-96542255D01*
X114001879Y-96518372D01*
X114003909Y-96513043D01*
X114009057Y-96498932D01*
X114011904Y-96489000D01*
X114012048Y-96486002D01*
X114006682Y-96485903D01*
X113994686Y-96487525D01*
X113982967Y-96489673D01*
X113964684Y-96491670D01*
X113941440Y-96491868D01*
X113916167Y-96490507D01*
X113891800Y-96487826D01*
X113871270Y-96484066D01*
X113857512Y-96479467D01*
X113857367Y-96479390D01*
X113849117Y-96470020D01*
X113848941Y-96466507D01*
X113858173Y-96466507D01*
X113863324Y-96472177D01*
X113886453Y-96477978D01*
X113915597Y-96480899D01*
X113947445Y-96480959D01*
X113978684Y-96478174D01*
X114006003Y-96472562D01*
X114009777Y-96471407D01*
X114023538Y-96466464D01*
X114032863Y-96462203D01*
X114034966Y-96460624D01*
X114031501Y-96459264D01*
X114020473Y-96458606D01*
X114004070Y-96458757D01*
X113999617Y-96458923D01*
X113979374Y-96459276D01*
X113968574Y-96458195D01*
X113966994Y-96455655D01*
X113967102Y-96455540D01*
X113974194Y-96452866D01*
X113988015Y-96450692D01*
X114004951Y-96449519D01*
X114021464Y-96448552D01*
X114033291Y-96447016D01*
X114037914Y-96445241D01*
X114037916Y-96445207D01*
X114033733Y-96437984D01*
X114022477Y-96428401D01*
X114006084Y-96417870D01*
X113986851Y-96407968D01*
X113956255Y-96396633D01*
X113939484Y-96393847D01*
X113979311Y-96393847D01*
X113981753Y-96396289D01*
X113984195Y-96393847D01*
X113981753Y-96391405D01*
X113979311Y-96393847D01*
X113939484Y-96393847D01*
X113929623Y-96392209D01*
X113908001Y-96394798D01*
X113898692Y-96399205D01*
X113884453Y-96411069D01*
X113872319Y-96425716D01*
X113863253Y-96441163D01*
X113858217Y-96455422D01*
X113858173Y-96466507D01*
X113848941Y-96466507D01*
X113848381Y-96455363D01*
X113855088Y-96436285D01*
X113862002Y-96424095D01*
X113879345Y-96401792D01*
X113898100Y-96388367D01*
X113919799Y-96382932D01*
X113932916Y-96382980D01*
X113949326Y-96384814D01*
X113962938Y-96387460D01*
X113967102Y-96388786D01*
X113972783Y-96390670D01*
X113971712Y-96388116D01*
X113965343Y-96381667D01*
X113948969Y-96359474D01*
X113941072Y-96333572D01*
X113941093Y-96332223D01*
X113951026Y-96332223D01*
X113957259Y-96352189D01*
X113967271Y-96365598D01*
X113983888Y-96381414D01*
X114004939Y-96397753D01*
X114024205Y-96410347D01*
X114042238Y-96421157D01*
X114032751Y-96387983D01*
X114027561Y-96369849D01*
X114024690Y-96359176D01*
X114023867Y-96354003D01*
X114024824Y-96352373D01*
X114027292Y-96352327D01*
X114027849Y-96352336D01*
X114031314Y-96356669D01*
X114036377Y-96368157D01*
X114042072Y-96384528D01*
X114043361Y-96388719D01*
X114048895Y-96405528D01*
X114053819Y-96417630D01*
X114057251Y-96422932D01*
X114057775Y-96422949D01*
X114061214Y-96417670D01*
X114067038Y-96405761D01*
X114074053Y-96389680D01*
X114074837Y-96387786D01*
X114084564Y-96355709D01*
X114090215Y-96318806D01*
X114091570Y-96280784D01*
X114088408Y-96245351D01*
X114084368Y-96227276D01*
X114077924Y-96208569D01*
X114069850Y-96189952D01*
X114061326Y-96173663D01*
X114053532Y-96161940D01*
X114047651Y-96157021D01*
X114047280Y-96156989D01*
X114042400Y-96160792D01*
X114034768Y-96170499D01*
X114029972Y-96177744D01*
X114019219Y-96193093D01*
X114005230Y-96210652D01*
X113995472Y-96221759D01*
X113974071Y-96249306D01*
X113959219Y-96277958D01*
X113951383Y-96306127D01*
X113951026Y-96332223D01*
X113941093Y-96332223D01*
X113941524Y-96304869D01*
X113950197Y-96274275D01*
X113966963Y-96242698D01*
X113989006Y-96214031D01*
X114003179Y-96197417D01*
X114015502Y-96181803D01*
X114023947Y-96169804D01*
X114025642Y-96166881D01*
X114034979Y-96154993D01*
X114046404Y-96148611D01*
X114056912Y-96149355D01*
G37*
G36*
X114006393Y-96634686D02*
G01*
X114015912Y-96649069D01*
X114019130Y-96656844D01*
X114021592Y-96666468D01*
X114023438Y-96679432D01*
X114024811Y-96697227D01*
X114025853Y-96721345D01*
X114026706Y-96753276D01*
X114026954Y-96765006D01*
X114027338Y-96799464D01*
X114027178Y-96834814D01*
X114026526Y-96868303D01*
X114025432Y-96897178D01*
X114024162Y-96916400D01*
X114022540Y-96939152D01*
X114021975Y-96957828D01*
X114022485Y-96970390D01*
X114023610Y-96974604D01*
X114031954Y-96976632D01*
X114046944Y-96973135D01*
X114067566Y-96964646D01*
X114092804Y-96951701D01*
X114121645Y-96934832D01*
X114153075Y-96914574D01*
X114186079Y-96891462D01*
X114197496Y-96883035D01*
X114223159Y-96862505D01*
X114253071Y-96836420D01*
X114285222Y-96806723D01*
X114317603Y-96775357D01*
X114348202Y-96744266D01*
X114375009Y-96715393D01*
X114394424Y-96692672D01*
X114408677Y-96675803D01*
X114418020Y-96666826D01*
X114422838Y-96665423D01*
X114423726Y-96668555D01*
X114420546Y-96675959D01*
X114411710Y-96689183D01*
X114398276Y-96706952D01*
X114381300Y-96727991D01*
X114361838Y-96751024D01*
X114340949Y-96774777D01*
X114319688Y-96797975D01*
X114299112Y-96819341D01*
X114297021Y-96821440D01*
X114243291Y-96872264D01*
X114191611Y-96915030D01*
X114140602Y-96950823D01*
X114107558Y-96970637D01*
X114066817Y-96993503D01*
X114111547Y-97017494D01*
X114184218Y-97059359D01*
X114257584Y-97107047D01*
X114328862Y-97158573D01*
X114395267Y-97211956D01*
X114438173Y-97250125D01*
X114455617Y-97265659D01*
X114467423Y-97274209D01*
X114474376Y-97276152D01*
X114477258Y-97271863D01*
X114477450Y-97268958D01*
X114480033Y-97258702D01*
X114486994Y-97242578D01*
X114497163Y-97222755D01*
X114509372Y-97201405D01*
X114522451Y-97180699D01*
X114533195Y-97165468D01*
X114548892Y-97145918D01*
X114568298Y-97123594D01*
X114587990Y-97102391D01*
X114594225Y-97096045D01*
X114610307Y-97079708D01*
X114620737Y-97067870D01*
X114626902Y-97058259D01*
X114630193Y-97048607D01*
X114631997Y-97036641D01*
X114632301Y-97033779D01*
X114633414Y-97019059D01*
X114633378Y-97009242D01*
X114632589Y-97006748D01*
X114628730Y-97010303D01*
X114619932Y-97020032D01*
X114607424Y-97034535D01*
X114592432Y-97052409D01*
X114589174Y-97056350D01*
X114563654Y-97085323D01*
X114541843Y-97105635D01*
X114523302Y-97117470D01*
X114507592Y-97121012D01*
X114494274Y-97116442D01*
X114482911Y-97103946D01*
X114481341Y-97101386D01*
X114475221Y-97086402D01*
X114471846Y-97069625D01*
X114471796Y-97068961D01*
X114470710Y-97057206D01*
X114469560Y-97050993D01*
X114469318Y-97050702D01*
X114465624Y-97053979D01*
X114457140Y-97062569D01*
X114445721Y-97074595D01*
X114425041Y-97093197D01*
X114403176Y-97106875D01*
X114382245Y-97114603D01*
X114364367Y-97115350D01*
X114362590Y-97114939D01*
X114346781Y-97107433D01*
X114336260Y-97094147D01*
X114330482Y-97073980D01*
X114328895Y-97046767D01*
X114330255Y-97023174D01*
X114333642Y-96998153D01*
X114338493Y-96974369D01*
X114344245Y-96954485D01*
X114350336Y-96941165D01*
X114351546Y-96939523D01*
X114357094Y-96936636D01*
X114361057Y-96942512D01*
X114363260Y-96956253D01*
X114363529Y-96976956D01*
X114362427Y-96995661D01*
X114361232Y-97017924D01*
X114361152Y-97039551D01*
X114362187Y-97056292D01*
X114362410Y-97057928D01*
X114365224Y-97071736D01*
X114369263Y-97078266D01*
X114376143Y-97079998D01*
X114376793Y-97080004D01*
X114389312Y-97076633D01*
X114406165Y-97067501D01*
X114425121Y-97054074D01*
X114443947Y-97037822D01*
X114449940Y-97031895D01*
X114459732Y-97021456D01*
X114465235Y-97013182D01*
X114467482Y-97003773D01*
X114467508Y-96989929D01*
X114466874Y-96977872D01*
X114466332Y-96957449D01*
X114467351Y-96945979D01*
X114469641Y-96942823D01*
X114472913Y-96947345D01*
X114476877Y-96958907D01*
X114481242Y-96976871D01*
X114485721Y-97000599D01*
X114489905Y-97028571D01*
X114494340Y-97057444D01*
X114499294Y-97077689D01*
X114505476Y-97089360D01*
X114513597Y-97092511D01*
X114524364Y-97087195D01*
X114538488Y-97073467D01*
X114556678Y-97051379D01*
X114569495Y-97034595D01*
X114590105Y-97007506D01*
X114606092Y-96987462D01*
X114618434Y-96973506D01*
X114628108Y-96964682D01*
X114636092Y-96960034D01*
X114643365Y-96958605D01*
X114646990Y-96958792D01*
X114653831Y-96959977D01*
X114657972Y-96962993D01*
X114660217Y-96969950D01*
X114661370Y-96982955D01*
X114662011Y-96998202D01*
X114662855Y-97016029D01*
X114663815Y-97029339D01*
X114664711Y-97035785D01*
X114664893Y-97036050D01*
X114673094Y-97033132D01*
X114686177Y-97025533D01*
X114701660Y-97014990D01*
X114717061Y-97003237D01*
X114729896Y-96992010D01*
X114734103Y-96987671D01*
X114758637Y-96965833D01*
X114785750Y-96952961D01*
X114817099Y-96948295D01*
X114820252Y-96948252D01*
X114838533Y-96949126D01*
X114851069Y-96952653D01*
X114861755Y-96959931D01*
X114861764Y-96959938D01*
X114870471Y-96969625D01*
X114871102Y-96975531D01*
X114864249Y-96976340D01*
X114855722Y-96973356D01*
X114833968Y-96968085D01*
X114810288Y-96971594D01*
X114786444Y-96982414D01*
X114768079Y-96995254D01*
X114755207Y-97008926D01*
X114748893Y-97021871D01*
X114750202Y-97032530D01*
X114751223Y-97033959D01*
X114756334Y-97038723D01*
X114762363Y-97039986D01*
X114771126Y-97037206D01*
X114784435Y-97029842D01*
X114801789Y-97018853D01*
X114827191Y-97004449D01*
X114847026Y-96997713D01*
X114861153Y-96998680D01*
X114866922Y-97003086D01*
X114871615Y-97011440D01*
X114877171Y-97024524D01*
X114878476Y-97028077D01*
X114885863Y-97042213D01*
X114895013Y-97050658D01*
X114895940Y-97051059D01*
X114911137Y-97053031D01*
X114932615Y-97050644D01*
X114958157Y-97044354D01*
X114985544Y-97034614D01*
X114994134Y-97030933D01*
X115011957Y-97022642D01*
X115022902Y-97016143D01*
X115029129Y-97009516D01*
X115032793Y-97000838D01*
X115034343Y-96995112D01*
X115041687Y-96969317D01*
X115049188Y-96948881D01*
X115056295Y-96934947D01*
X115062461Y-96928659D01*
X115065919Y-96929413D01*
X115066006Y-96934690D01*
X115064785Y-96947420D01*
X115062491Y-96965412D01*
X115060745Y-96977518D01*
X115056517Y-97008049D01*
X115054374Y-97030224D01*
X115054318Y-97045229D01*
X115056347Y-97054249D01*
X115060462Y-97058472D01*
X115060748Y-97058588D01*
X115067227Y-97056743D01*
X115080118Y-97049489D01*
X115098244Y-97037569D01*
X115120429Y-97021727D01*
X115127898Y-97016172D01*
X115163032Y-96990626D01*
X115192040Y-96971488D01*
X115215802Y-96958362D01*
X115235200Y-96950851D01*
X115251116Y-96948561D01*
X115264430Y-96951095D01*
X115268532Y-96952990D01*
X115277622Y-96962763D01*
X115284307Y-96979689D01*
X115287809Y-97001292D01*
X115288067Y-97015251D01*
X115287660Y-97034237D01*
X115287630Y-97052928D01*
X115287703Y-97057336D01*
X115288490Y-97069399D01*
X115291437Y-97074024D01*
X115298564Y-97073538D01*
X115301212Y-97072897D01*
X115310631Y-97068935D01*
X115325826Y-97060802D01*
X115344480Y-97049792D01*
X115359285Y-97040465D01*
X115379051Y-97027499D01*
X115392119Y-97018123D01*
X115400041Y-97010692D01*
X115404366Y-97003566D01*
X115406645Y-96995102D01*
X115407586Y-96989291D01*
X115415360Y-96966440D01*
X115430304Y-96945105D01*
X115449983Y-96928566D01*
X115454664Y-96925918D01*
X115472703Y-96920138D01*
X115491759Y-96919645D01*
X115509467Y-96923741D01*
X115523461Y-96931728D01*
X115531374Y-96942906D01*
X115532320Y-96948853D01*
X115531883Y-96955135D01*
X115528967Y-96955487D01*
X115521163Y-96949842D01*
X115519453Y-96948499D01*
X115501635Y-96940145D01*
X115481822Y-96939650D01*
X115462768Y-96946337D01*
X115447227Y-96959530D01*
X115442055Y-96967519D01*
X115436535Y-96981150D01*
X115435218Y-96994340D01*
X115438652Y-97008695D01*
X115447381Y-97025821D01*
X115461954Y-97047325D01*
X115475200Y-97064905D01*
X115486686Y-97079814D01*
X115495597Y-97091442D01*
X115500479Y-97097886D01*
X115500961Y-97098557D01*
X115504964Y-97096502D01*
X115514855Y-97089759D01*
X115528786Y-97079610D01*
X115534579Y-97075259D01*
X115561481Y-97056033D01*
X115586869Y-97040768D01*
X115614987Y-97027068D01*
X115634770Y-97018668D01*
X115661522Y-97007730D01*
X115660051Y-96952298D01*
X115661420Y-96899490D01*
X115668180Y-96850520D01*
X115679985Y-96806588D01*
X115696490Y-96768896D01*
X115717351Y-96738646D01*
X115723209Y-96732385D01*
X115747172Y-96713081D01*
X115770895Y-96702725D01*
X115793470Y-96701266D01*
X115813990Y-96708649D01*
X115831550Y-96724825D01*
X115840494Y-96739130D01*
X115845833Y-96751316D01*
X115848677Y-96763649D01*
X115849473Y-96779395D01*
X115848774Y-96799786D01*
X115844059Y-96834350D01*
X115833143Y-96866567D01*
X115815150Y-96898242D01*
X115789203Y-96931178D01*
X115780076Y-96941212D01*
X115762397Y-96959147D01*
X115745212Y-96974829D01*
X115729994Y-96987091D01*
X115718212Y-96994765D01*
X115711337Y-96996682D01*
X115710706Y-96996299D01*
X115712842Y-96992067D01*
X115720086Y-96982309D01*
X115731075Y-96968818D01*
X115736213Y-96962777D01*
X115758982Y-96934566D01*
X115779590Y-96905706D01*
X115796719Y-96878256D01*
X115809048Y-96854275D01*
X115813820Y-96841671D01*
X115818647Y-96818267D01*
X115820191Y-96793432D01*
X115818472Y-96770683D01*
X115813509Y-96753534D01*
X115813312Y-96753147D01*
X115802067Y-96738725D01*
X115787825Y-96733451D01*
X115770343Y-96737292D01*
X115756059Y-96745377D01*
X115740578Y-96760618D01*
X115726039Y-96783885D01*
X115713301Y-96813440D01*
X115703220Y-96847542D01*
X115701154Y-96856871D01*
X115697179Y-96882739D01*
X115694818Y-96912200D01*
X115694095Y-96942369D01*
X115695033Y-96970365D01*
X115697655Y-96993303D01*
X115699962Y-97003170D01*
X115705691Y-97021568D01*
X115740620Y-96995225D01*
X115770409Y-96975294D01*
X115796283Y-96963650D01*
X115819088Y-96960055D01*
X115839668Y-96964268D01*
X115843536Y-96965999D01*
X115853741Y-96972288D01*
X115862711Y-96981431D01*
X115872124Y-96995530D01*
X115882938Y-97015295D01*
X115893335Y-97034593D01*
X115900998Y-97046634D01*
X115907274Y-97053032D01*
X115913511Y-97055402D01*
X115916547Y-97055585D01*
X115932504Y-97051863D01*
X115950193Y-97042160D01*
X115966002Y-97028669D01*
X115971240Y-97022363D01*
X115978509Y-97014363D01*
X115983647Y-97012151D01*
X115984023Y-97012408D01*
X115984487Y-97019150D01*
X115979362Y-97030346D01*
X115970083Y-97043666D01*
X115958088Y-97056777D01*
X115954918Y-97059673D01*
X115934923Y-97073927D01*
X115916868Y-97079349D01*
X115900090Y-97075735D01*
X115883928Y-97062878D01*
X115867721Y-97040573D01*
X115862102Y-97030835D01*
X115849449Y-97009886D01*
X115837563Y-96995932D01*
X115825160Y-96988962D01*
X115810957Y-96988965D01*
X115793671Y-96995929D01*
X115772019Y-97009844D01*
X115745828Y-97029817D01*
X115724420Y-97046012D01*
X115708590Y-97055559D01*
X115696954Y-97058659D01*
X115688125Y-97055515D01*
X115680720Y-97046327D01*
X115677248Y-97039798D01*
X115668340Y-97021570D01*
X115647946Y-97031939D01*
X115621470Y-97047105D01*
X115591334Y-97067176D01*
X115560651Y-97090018D01*
X115546971Y-97101068D01*
X115520111Y-97123393D01*
X115520111Y-97159082D01*
X115517689Y-97189333D01*
X115509658Y-97215743D01*
X115494875Y-97240967D01*
X115474344Y-97265395D01*
X115456234Y-97281919D01*
X115440977Y-97289523D01*
X115427897Y-97288394D01*
X115418311Y-97281071D01*
X115411647Y-97266717D01*
X115411574Y-97248490D01*
X115444587Y-97248490D01*
X115457136Y-97233839D01*
X115467629Y-97219434D01*
X115477422Y-97202690D01*
X115478919Y-97199654D01*
X115484679Y-97185293D01*
X115487878Y-97173091D01*
X115488112Y-97170352D01*
X115486105Y-97169361D01*
X115480904Y-97175186D01*
X115473681Y-97185902D01*
X115465606Y-97199587D01*
X115457849Y-97214317D01*
X115451581Y-97228168D01*
X115449478Y-97233839D01*
X115444587Y-97248490D01*
X115411574Y-97248490D01*
X115411567Y-97246786D01*
X115417681Y-97222541D01*
X115429599Y-97195244D01*
X115446931Y-97166156D01*
X115459027Y-97149332D01*
X115469213Y-97134524D01*
X115474868Y-97123102D01*
X115475296Y-97117588D01*
X115470982Y-97111310D01*
X115462307Y-97099235D01*
X115450742Y-97083398D01*
X115443427Y-97073476D01*
X115431258Y-97056354D01*
X115421709Y-97041635D01*
X115416075Y-97031386D01*
X115415112Y-97028302D01*
X115414064Y-97022580D01*
X115410152Y-97023088D01*
X115402223Y-97030420D01*
X115394654Y-97038798D01*
X115379465Y-97053798D01*
X115360454Y-97069304D01*
X115340106Y-97083611D01*
X115320905Y-97095015D01*
X115305337Y-97101811D01*
X115301421Y-97102752D01*
X115287471Y-97102903D01*
X115275341Y-97096901D01*
X115270677Y-97093139D01*
X115263946Y-97086795D01*
X115259642Y-97080216D01*
X115257110Y-97071019D01*
X115255693Y-97056820D01*
X115254736Y-97035256D01*
X115253621Y-97014916D01*
X115252008Y-96998305D01*
X115250165Y-96987821D01*
X115249213Y-96985597D01*
X115241988Y-96984965D01*
X115227960Y-96990589D01*
X115207598Y-97002204D01*
X115181369Y-97019544D01*
X115150968Y-97041429D01*
X115120543Y-97063251D01*
X115096268Y-97078807D01*
X115077223Y-97088570D01*
X115062489Y-97093014D01*
X115051480Y-97092700D01*
X115039884Y-97085166D01*
X115031345Y-97070711D01*
X115027442Y-97052070D01*
X115027393Y-97050969D01*
X115026659Y-97040563D01*
X115025627Y-97036066D01*
X115025597Y-97036062D01*
X115021285Y-97038660D01*
X115011619Y-97045327D01*
X115004036Y-97050754D01*
X114985511Y-97061514D01*
X114961963Y-97071541D01*
X114937149Y-97079535D01*
X114914828Y-97084195D01*
X114905475Y-97084869D01*
X114884827Y-97080388D01*
X114866165Y-97068505D01*
X114852849Y-97051491D01*
X114851407Y-97048366D01*
X114844185Y-97031081D01*
X114814067Y-97050547D01*
X114786022Y-97065976D01*
X114762646Y-97072915D01*
X114743766Y-97071356D01*
X114729211Y-97061294D01*
X114720419Y-97046780D01*
X114715918Y-97036692D01*
X114713345Y-97031603D01*
X114708925Y-97033040D01*
X114698896Y-97038805D01*
X114688042Y-97045893D01*
X114664162Y-97062189D01*
X114660839Y-97111386D01*
X114654895Y-97174259D01*
X114646133Y-97227947D01*
X114634473Y-97272640D01*
X114619835Y-97308529D01*
X114602141Y-97335806D01*
X114581309Y-97354659D01*
X114557261Y-97365281D01*
X114554519Y-97365933D01*
X114545670Y-97369377D01*
X114543622Y-97373422D01*
X114543013Y-97377636D01*
X114541511Y-97377908D01*
X114534545Y-97374368D01*
X114533870Y-97373447D01*
X114528122Y-97368806D01*
X114516732Y-97362172D01*
X114510277Y-97358899D01*
X114493782Y-97347928D01*
X114480703Y-97333755D01*
X114473370Y-97319185D01*
X114472563Y-97313500D01*
X114468777Y-97306017D01*
X114458119Y-97293721D01*
X114455895Y-97291534D01*
X114506572Y-97291534D01*
X114507695Y-97310993D01*
X114515165Y-97324373D01*
X114517602Y-97326352D01*
X114535273Y-97333623D01*
X114553307Y-97331258D01*
X114571134Y-97319345D01*
X114572630Y-97317886D01*
X114585279Y-97300252D01*
X114596876Y-97274371D01*
X114606927Y-97241750D01*
X114614935Y-97203892D01*
X114618752Y-97177677D01*
X114621470Y-97155301D01*
X114623974Y-97134721D01*
X114625872Y-97119165D01*
X114626423Y-97114677D01*
X114628464Y-97098071D01*
X114613546Y-97112235D01*
X114597141Y-97129871D01*
X114578271Y-97153367D01*
X114558954Y-97179905D01*
X114541205Y-97206666D01*
X114527044Y-97230833D01*
X114523102Y-97238585D01*
X114511730Y-97267048D01*
X114506572Y-97291534D01*
X114455895Y-97291534D01*
X114441640Y-97277513D01*
X114420389Y-97258295D01*
X114395416Y-97236967D01*
X114367773Y-97214431D01*
X114338507Y-97191586D01*
X114308671Y-97169334D01*
X114284541Y-97152181D01*
X114254088Y-97131674D01*
X114221471Y-97110778D01*
X114187863Y-97090147D01*
X114154442Y-97070434D01*
X114122380Y-97052292D01*
X114092854Y-97036373D01*
X114067039Y-97023331D01*
X114046109Y-97013818D01*
X114031240Y-97008489D01*
X114024528Y-97007670D01*
X114020981Y-97010092D01*
X114017895Y-97016773D01*
X114014942Y-97029086D01*
X114011790Y-97048402D01*
X114008156Y-97075733D01*
X114002517Y-97116865D01*
X113995942Y-97158458D01*
X113988688Y-97199387D01*
X113981010Y-97238531D01*
X113973165Y-97274766D01*
X113965408Y-97306970D01*
X113957997Y-97334020D01*
X113951188Y-97354794D01*
X113945236Y-97368169D01*
X113940398Y-97373022D01*
X113940304Y-97373024D01*
X113939196Y-97372917D01*
X113938463Y-97371885D01*
X113938221Y-97368864D01*
X113938589Y-97362790D01*
X113939684Y-97352599D01*
X113941622Y-97337227D01*
X113944522Y-97315608D01*
X113948501Y-97286679D01*
X113953677Y-97249376D01*
X113955000Y-97239857D01*
X113959871Y-97204163D01*
X113964721Y-97167497D01*
X113969219Y-97132450D01*
X113973032Y-97101613D01*
X113975828Y-97077575D01*
X113976054Y-97075508D01*
X113982341Y-97017468D01*
X113964000Y-97014535D01*
X113946130Y-97007690D01*
X113934388Y-96994879D01*
X113930853Y-96980605D01*
X113955034Y-96980605D01*
X113955937Y-96984544D01*
X113962947Y-96988718D01*
X113972607Y-96991383D01*
X113976870Y-96991626D01*
X113981663Y-96990626D01*
X113978077Y-96987694D01*
X113971986Y-96984827D01*
X113961355Y-96981014D01*
X113955227Y-96980465D01*
X113955034Y-96980605D01*
X113930853Y-96980605D01*
X113930475Y-96979078D01*
X113934110Y-96968760D01*
X113942677Y-96959738D01*
X113952665Y-96955183D01*
X113956675Y-96955430D01*
X113965423Y-96957684D01*
X113975060Y-96959891D01*
X113987901Y-96962686D01*
X113991489Y-96886122D01*
X113993172Y-96843554D01*
X113994201Y-96802693D01*
X113994584Y-96764901D01*
X113994331Y-96731534D01*
X113993451Y-96703953D01*
X113991953Y-96683516D01*
X113990044Y-96672217D01*
X113987842Y-96665609D01*
X113985513Y-96663416D01*
X113982031Y-96666683D01*
X113976367Y-96676456D01*
X113967492Y-96693782D01*
X113966053Y-96696635D01*
X113939260Y-96756799D01*
X113919131Y-96817133D01*
X113912838Y-96842274D01*
X113907284Y-96864709D01*
X113902788Y-96877698D01*
X113899420Y-96881187D01*
X113897250Y-96875122D01*
X113896346Y-96859449D01*
X113896323Y-96855110D01*
X113898869Y-96822239D01*
X113905830Y-96784445D01*
X113916286Y-96744986D01*
X113929316Y-96707120D01*
X113944002Y-96674106D01*
X113950947Y-96661632D01*
X113966205Y-96640632D01*
X113980669Y-96629115D01*
X113994134Y-96627119D01*
X114006393Y-96634686D01*
G37*
D14*
%TO.C,R2*%
X175610000Y-93950000D02*
X178660000Y-93950000D01*
X175610000Y-98250000D02*
X178660000Y-98250000D01*
X175610000Y-98250000D02*
G75*
G02*
X175631766Y-93934475I1550000J2150000D01*
G01*
X178660000Y-93950000D02*
G75*
G02*
X178704513Y-98218249I-1500000J-2150000D01*
G01*
%TO.C,BT1*%
X114840000Y-65330000D02*
X114840000Y-68330000D01*
X114840000Y-65330000D02*
X117840000Y-65330000D01*
X115180000Y-65670000D02*
X115180000Y-68230000D01*
X115180000Y-73530000D02*
X115180000Y-81880000D01*
X115180000Y-90260000D02*
X115180000Y-85580000D01*
X120780000Y-61570000D02*
X120780000Y-65670000D01*
X120780000Y-65670000D02*
X115180000Y-65670000D01*
X120780000Y-90260000D02*
X115180000Y-90260000D01*
X120780000Y-93160000D02*
X120780000Y-90260000D01*
X170340000Y-61570000D02*
X120780000Y-61570000D01*
X170340000Y-93160000D02*
X120780000Y-93160000D01*
X170340000Y-93160000D02*
X170340000Y-61570000D01*
%TO.C,R1*%
X173960000Y-63020000D02*
X173960000Y-66330000D01*
X173960000Y-76180000D02*
X173960000Y-72870000D01*
X172590000Y-72870000D02*
X175330000Y-72870000D01*
X175330000Y-66330000D01*
X172590000Y-66330000D01*
X172590000Y-72870000D01*
%TO.C,D1*%
X174670000Y-82055000D02*
X174670000Y-85145000D01*
X174670000Y-82055170D02*
G75*
G02*
X180220000Y-83600000I2560000J-1544830D01*
G01*
X180220000Y-83600000D02*
G75*
G02*
X174670000Y-85144830I-2990000J0D01*
G01*
X179730000Y-83600000D02*
G75*
G02*
X174730000Y-83600000I-2500000J0D01*
G01*
X174730000Y-83600000D02*
G75*
G02*
X179730000Y-83600000I2500000J0D01*
G01*
%TO.C,Q1*%
X175430000Y-92450000D02*
X179030000Y-92450000D01*
X175391522Y-92438478D02*
G75*
G02*
X177230000Y-87999999I1838478J1838478D01*
G01*
X177230000Y-88000000D02*
G75*
G02*
X179068478Y-92438478I0J-2600000D01*
G01*
%TO.C,R3*%
X178010000Y-63020000D02*
X178010000Y-66330000D01*
X178010000Y-76180000D02*
X178010000Y-72870000D01*
X176640000Y-72870000D02*
X179380000Y-72870000D01*
X179380000Y-66330000D01*
X176640000Y-66330000D01*
X176640000Y-72870000D01*
%TD*%
M02*
